<svg height="512" viewBox="0 0 512 512" width="512" xmlns="http://www.w3.org/2000/svg"><g><g><path d="m464 112-192 96-87.38-40.33 103.38-55.67 84.74-45.63z" fill="#d9ccbc"/><path d="m464 112v288l-192 96v-288z" fill="#5f4d37"/><path d="m272 208v288l-208-96v-288l64 29.54 56.62 26.13z" fill="#a0815c"/><path d="m316.24 38.12-142.08 73.88-46.16 24v5.54l-64-29.54 208-96z" fill="#d9ccbc"/><g fill="#ff9811"><path d="m372.74 66.37-84.74 45.63-103.38 55.67-56.62-26.13v-5.54l46.16-24 142.08-73.88z"/><path d="m184.62 167.67-.62.33v144l-56-24v-146.46z"/></g></g><path d="m467.58 104.84-192-96a8.018 8.018 0 0 0 -6.93-.1l-208 96a7.978 7.978 0 0 0 -4.65 7.26v288a7.978 7.978 0 0 0 4.65 7.26l208 96a8 8 0 0 0 6.93-.1l192-96a8.011 8.011 0 0 0 4.42-7.16v-288a8.011 8.011 0 0 0 -4.42-7.16zm-112.2-38.21-171.04 92.1-43.82-20.22 175.79-91.41zm-179.38 105.87v127.37l-40-17.15v-128.68zm95.86-147.62 26.77 13.38-174.32 90.64a8.37 8.37 0 0 0 -1.81 1.29l-39.41-18.19zm-7.86 458.62-192-88.62v-270.38l48 22.16v141.34a8 8 0 0 0 4.85 7.35l56 24a7.866 7.866 0 0 0 3.15.65 8 8 0 0 0 8-8v-132.11l72 33.23zm7.86-284.38-69.35-32 170.37-91.74 73.23 36.62zm184.14 195.94-176 88v-270.12l176-88z"/></g></svg>