<svg id="Layer_1" enable-background="new 0 0 512 512" height="512" viewBox="0 0 512 512" width="512" xmlns="http://www.w3.org/2000/svg"><g><path d="m50.994 198.385v245.058h410.012v-245.058h-122.897l-82.109-102.885-82.109 102.885z" fill="#ca6633"/><g><g><g><path d="m307.203 198.385h30.906l-82.109-102.885-15.453 19.363z" fill="#fcab51"/></g><path d="m430.101 198.385h30.905v245.058h-30.905z" fill="#ae5121"/></g></g><g fill="#943f1c"><path d="m50.994 227.686h410.012v15h-410.012z"/><path d="m50.994 264.962h410.012v15h-410.012z"/><path d="m50.994 308.173h410.012v15h-410.012z"/><path d="m50.994 351.385h410.012v15h-410.012z"/><path d="m50.994 394.596h410.012v15h-410.012z"/></g><path d="m482.719 198.385h-453.438l46.655-156.385h360.128z" fill="#e82a40"/><path d="m436.064 42h-30.906l46.656 156.385h30.905z" fill="#d6243a"/><path d="m336.354 272.462h90.656v86.423h-90.656z" fill="#a5e7ef"/><path d="m396.105 272.462h30.905v86.423h-30.905z" fill="#70d7e5"/><path d="m84.99 272.462h90.656v86.423h-90.656z" fill="#a5e7ef"/><path d="m144.74 272.462h30.905v86.423h-30.905z" fill="#70d7e5"/><path d="m209.642 272.462h92.716v170.981h-92.716z" fill="#efefef"/><path d="m271.453 272.462h30.905v170.981h-30.905z" fill="#dcdcdc"/><g fill="#943f1c"><path d="m427.01 264.962h-90.655c-4.143 0-7.5 3.357-7.5 7.5v86.423c0 4.143 3.357 7.5 7.5 7.5h90.655c4.143 0 7.5-3.357 7.5-7.5v-86.423c0-4.143-3.358-7.5-7.5-7.5zm-83.156 15h30.327v71.423h-30.327zm75.656 71.423h-30.328v-71.423h30.328z"/><path d="m175.646 264.962h-90.656c-4.143 0-7.5 3.357-7.5 7.5v86.423c0 4.143 3.357 7.5 7.5 7.5h90.655c4.143 0 7.5-3.357 7.5-7.5v-86.423c.001-4.143-3.357-7.5-7.499-7.5zm-83.156 15h30.328v71.423h-30.328zm75.656 71.423h-30.327v-71.423h30.327z"/><path d="m302.358 264.962h-92.717c-4.143 0-7.5 3.357-7.5 7.5v170.981c0 4.143 3.357 7.5 7.5 7.5s7.5-3.357 7.5-7.5v-163.481h77.717v163.481c0 4.143 3.357 7.5 7.5 7.5s7.5-3.357 7.5-7.5v-170.981c0-4.143-3.357-7.5-7.5-7.5z"/></g><path d="m481.61 182.952h-136.057l-77.469-97.071c-2.932-3.674-7.38-5.814-12.084-5.814s-9.152 2.14-12.084 5.814l-77.469 97.071h-136.057c-8.534 0-15.453 6.91-15.453 15.433s6.919 15.433 15.453 15.433h143.501c4.704 0 9.152-2.14 12.084-5.814l70.025-87.743 70.025 87.743c2.932 3.674 7.38 5.814 12.084 5.814h143.501c8.534 0 15.453-6.91 15.453-15.433s-6.919-15.433-15.453-15.433z" fill="#efefef"/><g><path d="m481.61 182.952h-30.905c8.534 0 15.453 6.91 15.453 15.433s-6.919 15.433-15.453 15.433h30.905c8.534 0 15.453-6.91 15.453-15.433s-6.919-15.433-15.453-15.433z" fill="#dcdcdc"/></g><path d="m495.538 470h-479.076c-9.092 0-16.462-7.37-16.462-16.462 0-9.091 7.37-16.462 16.462-16.462h479.077c9.091 0 16.462 7.37 16.462 16.462-.001 9.092-7.371 16.462-16.463 16.462z" fill="#6bd169"/><path d="m495.517 437.077h-30.905c9.103 0 16.483 7.37 16.483 16.461 0 9.091-7.38 16.462-16.483 16.462h30.905c9.103 0 16.483-7.37 16.483-16.462 0-9.091-7.38-16.461-16.483-16.461z" fill="#52b551"/></g></svg>