<?xml version="1.0"?>
<svg xmlns="http://www.w3.org/2000/svg" xmlns:xlink="http://www.w3.org/1999/xlink" xmlns:svgjs="http://svgjs.com/svgjs" version="1.1" width="512" height="512" x="0" y="0" viewBox="0 0 496.485 496.485" style="enable-background:new 0 0 512 512" xml:space="preserve" class=""><g>
<circle xmlns="http://www.w3.org/2000/svg" style="" cx="248.242" cy="248.242" r="248.242" fill="#3abbeb" data-original="#fdbe5e" class=""/>
<rect xmlns="http://www.w3.org/2000/svg" x="359.176" y="51.976" style="" width="63.612" height="141.188" fill="#e1e6e9" data-original="#e1e6e9"/>
<g xmlns="http://www.w3.org/2000/svg">
	<path style="" d="M422.788,200.921h-63.612c-4.655,0-7.758-3.103-7.758-7.758V51.976c0-4.655,3.103-7.758,7.758-7.758   h63.612c4.655,0,7.758,3.103,7.758,7.758v141.188C430.545,197.818,426.667,200.921,422.788,200.921z M366.933,185.406h48.097   V59.733h-48.097V185.406z" fill="#193651" data-original="#193651" class=""/>
	<path style="" d="M434.424,59.733h-86.885c-4.655,0-7.758-3.103-7.758-7.758s3.103-7.758,7.758-7.758h86.885   c4.655,0,7.758,3.103,7.758,7.758S439.079,59.733,434.424,59.733z" fill="#193651" data-original="#193651" class=""/>
</g>
<rect xmlns="http://www.w3.org/2000/svg" x="51.976" y="221.867" style="" width="394.085" height="266.861" fill="#ffffff" data-original="#ffffff" class=""/>
<path xmlns="http://www.w3.org/2000/svg" style="" d="M446.061,496.485H51.976c-4.655,0-7.758-3.103-7.758-7.758V221.867c0-4.655,3.103-7.758,7.758-7.758  h394.085c4.655,0,7.758,3.103,7.758,7.758v266.861C453.818,493.382,450.715,496.485,446.061,496.485z M59.733,480.97h378.57V229.624  H59.733V480.97z" fill="#193651" data-original="#193651" class=""/>
<path xmlns="http://www.w3.org/2000/svg" style="" d="M300.218,488.727v-65.164c0-27.927-23.273-51.2-51.2-51.2c-28.703,0-51.2,22.497-51.2,51.2v65.164  H300.218z" fill="#d0d1d1" data-original="#d0d1d1" class=""/>
<g xmlns="http://www.w3.org/2000/svg">
	<rect x="353.745" y="402.618" style="" width="15.515" height="15.515" fill="#193651" data-original="#193651" class=""/>
	<rect x="400.291" y="402.618" style="" width="15.515" height="15.515" fill="#193651" data-original="#193651" class=""/>
	<rect x="353.745" y="441.406" style="" width="15.515" height="15.515" fill="#193651" data-original="#193651" class=""/>
	<rect x="400.291" y="441.406" style="" width="15.515" height="15.515" fill="#193651" data-original="#193651" class=""/>
	<rect x="82.23" y="402.618" style="" width="15.515" height="15.515" fill="#193651" data-original="#193651" class=""/>
	<rect x="128.776" y="402.618" style="" width="15.515" height="15.515" fill="#193651" data-original="#193651" class=""/>
	<rect x="82.23" y="441.406" style="" width="15.515" height="15.515" fill="#193651" data-original="#193651" class=""/>
	<rect x="128.776" y="441.406" style="" width="15.515" height="15.515" fill="#193651" data-original="#193651" class=""/>
</g>
<polygon xmlns="http://www.w3.org/2000/svg" style="" points="467.782,221.867 249.018,51.976 31.03,221.867 " fill="#f16050" data-original="#f16050" class=""/>
<path xmlns="http://www.w3.org/2000/svg" style="" d="M467.782,229.624H31.03c-3.103,0-6.206-2.327-6.982-5.43c-0.776-3.103,0-6.982,2.327-8.533  L244.364,45.77c3.103-2.327,6.982-2.327,9.309,0l217.988,169.891c2.327,2.327,3.879,5.43,2.327,8.533  C473.988,227.297,470.885,229.624,467.782,229.624z M53.527,214.109h391.758L249.018,62.061L53.527,214.109z" fill="#193651" data-original="#193651" class=""/>
<g xmlns="http://www.w3.org/2000/svg">
	<polygon style="" points="113.261,193.164 249.018,87.661 385.552,193.164  " fill="#ffffff" data-original="#ffffff" class=""/>
	<circle style="" cx="249.018" cy="152.048" r="21.721" fill="#ffffff" data-original="#ffffff" class=""/>
</g>
<g xmlns="http://www.w3.org/2000/svg">
	<path style="" d="M249.018,181.527c-16.291,0-29.479-13.188-29.479-29.479s13.188-29.479,29.479-29.479   s29.479,13.188,29.479,29.479C278.497,168.339,265.309,181.527,249.018,181.527z M249.018,138.861   c-7.758,0-13.964,6.206-13.964,13.964c0,7.758,6.206,13.964,13.964,13.964c7.758,0,13.964-6.206,13.964-13.964   C262.982,145.067,256.776,138.861,249.018,138.861z" fill="#193651" data-original="#193651" class=""/>
	<path style="" d="M467.782,496.485H31.03c-4.655,0-7.758-3.103-7.758-7.758s3.103-7.758,7.758-7.758h436.752   c4.655,0,7.758,3.103,7.758,7.758S471.661,496.485,467.782,496.485z" fill="#193651" data-original="#193651" class=""/>
</g>
<g xmlns="http://www.w3.org/2000/svg">
	<rect x="355.297" y="254.448" style="" width="41.115" height="41.115" fill="#d2cf5f" data-original="#2ba1db" class=""/>
	<rect x="296.339" y="254.448" style="" width="41.115" height="41.115" fill="#d2cf5f" data-original="#2ba1db" class=""/>
	<rect x="355.297" y="314.182" style="" width="41.115" height="41.115" fill="#d2cf5f" data-original="#2ba1db" class=""/>
	<rect x="296.339" y="314.182" style="" width="41.115" height="41.115" fill="#d2cf5f" data-original="#2ba1db" class=""/>
	<rect x="160.582" y="254.448" style="" width="41.115" height="41.115" fill="#d2cf5f" data-original="#2ba1db" class=""/>
	<rect x="101.624" y="254.448" style="" width="41.115" height="41.115" fill="#d2cf5f" data-original="#2ba1db" class=""/>
	<rect x="160.582" y="314.182" style="" width="41.115" height="41.115" fill="#d2cf5f" data-original="#2ba1db" class=""/>
	<rect x="101.624" y="314.182" style="" width="41.115" height="41.115" fill="#d2cf5f" data-original="#2ba1db" class=""/>
</g>
<g xmlns="http://www.w3.org/2000/svg">
</g>
<g xmlns="http://www.w3.org/2000/svg">
</g>
<g xmlns="http://www.w3.org/2000/svg">
</g>
<g xmlns="http://www.w3.org/2000/svg">
</g>
<g xmlns="http://www.w3.org/2000/svg">
</g>
<g xmlns="http://www.w3.org/2000/svg">
</g>
<g xmlns="http://www.w3.org/2000/svg">
</g>
<g xmlns="http://www.w3.org/2000/svg">
</g>
<g xmlns="http://www.w3.org/2000/svg">
</g>
<g xmlns="http://www.w3.org/2000/svg">
</g>
<g xmlns="http://www.w3.org/2000/svg">
</g>
<g xmlns="http://www.w3.org/2000/svg">
</g>
<g xmlns="http://www.w3.org/2000/svg">
</g>
<g xmlns="http://www.w3.org/2000/svg">
</g>
<g xmlns="http://www.w3.org/2000/svg">
</g>
</g></svg>
