<?xml version="1.0"?>
<svg xmlns="http://www.w3.org/2000/svg" xmlns:xlink="http://www.w3.org/1999/xlink" xmlns:svgjs="http://svgjs.com/svgjs" version="1.1" width="512" height="512" x="0" y="0" viewBox="0 0 504 504.336" style="enable-background:new 0 0 512 512" xml:space="preserve" class=""><g><path xmlns="http://www.w3.org/2000/svg" d="m10.046875 504.335938 28.480469-134.175782c-59.511719-92.195312-48.914063-213.015625 25.746094-293.441406 74.660156-80.425781 194.355468-99.96875 290.71875-47.46875 96.363281 52.503906 144.839843 163.675781 117.742187 270.015625-27.097656 106.335937-122.867187 180.753906-232.605469 180.734375-33.800781.019531-67.210937-7.1875-98-21.136719zm0 0" fill="#00693e" data-original="#00acc1" style="" class=""/><path xmlns="http://www.w3.org/2000/svg" d="m120.128906 288c-6.246094-6.246094-6.246094-16.375 0-22.625l84-84 72 72 61.375-61.375c6.25-6.246094 16.375-6.246094 22.625 0 6.246094 6.246094 6.246094 16.375 0 22.625l-84 84-72-72-61.375 61.375c-6.25 6.246094-16.378906 6.246094-22.625 0zm0 0" fill="#ffffff" data-original="#ffffff" style="" class=""/></g></svg>
