<?xml version="1.0"?>
<svg xmlns="http://www.w3.org/2000/svg" xmlns:xlink="http://www.w3.org/1999/xlink" xmlns:svgjs="http://svgjs.com/svgjs" version="1.1" width="512" height="512" x="0" y="0" viewBox="0 0 24 24" style="enable-background:new 0 0 512 512" xml:space="preserve" class=""><g><path xmlns="http://www.w3.org/2000/svg" d="m21.5 10h-19c-.828 0-1.5.672-1.5 1.5v1c0 .828.672 1.5 1.5 1.5h19c.828 0 1.5-.672 1.5-1.5v-1c0-.828-.672-1.5-1.5-1.5z" fill="#474bd2" data-original="#4caf50" style="" class=""/><path xmlns="http://www.w3.org/2000/svg" d="m10 2.5v19c0 .828.672 1.5 1.5 1.5h1c.828 0 1.5-.672 1.5-1.5v-19c0-.828-.672-1.5-1.5-1.5h-1c-.828 0-1.5.672-1.5 1.5z" fill="#474bd2" data-original="#4caf50" style="" class=""/><g xmlns="http://www.w3.org/2000/svg" fill="#429846"><path d="m10 10h-7.5c-.828 0-1.5.672-1.5 1.5v1c0 .828.672 1.5 1.5 1.5h7.5z" fill="#6786b6" data-original="#429846" style="" class=""/><path d="m12 1h-.5c-.828 0-1.5.672-1.5 1.5v7.5 4 7.5c0 .828.672 1.5 1.5 1.5h.5z" fill="#6786b6" data-original="#429846" style="" class=""/></g></g></svg>
