<?xml version="1.0"?>
<svg xmlns="http://www.w3.org/2000/svg" xmlns:xlink="http://www.w3.org/1999/xlink" xmlns:svgjs="http://svgjs.com/svgjs" version="1.1" width="512" height="512" x="0" y="0" viewBox="0 0 512 512" style="enable-background:new 0 0 512 512" xml:space="preserve" class=""><g><g xmlns="http://www.w3.org/2000/svg" id="Flat"><path d="m102.837 94h135.326v15.999h-135.326z" fill="#60d1e0" transform="matrix(.865 -.502 .502 .865 -28.165 99.481)" data-original="#60d1e0" style=""/><path d="m151 318.277h16v169.446h-16z" fill="#60d1e0" transform="matrix(.508 -.862 .862 .508 -268.935 335.462)" data-original="#60d1e0" style=""/><path d="m234.069 278.887-8.138-13.774-58.873 34.788-32.931-43.843 32.668-43.629 45.159 26.472 8.092-13.802-43.6-25.559 61.957-82.745-12.806-9.59-63.041 84.193-58.51-34.299-8.092 13.802 56.951 33.385-28.787 38.446-47.722-63.537-12.792 9.61 50.525 67.269-40.532 54.131 12.806 9.59 37.735-50.395 29.06 38.691-59.267 35.022 8.138 13.774 60.797-35.925 72.738 96.843 12.792-9.61-71.671-95.423z" fill="#60d1e0" data-original="#60d1e0" style=""/><path d="m342 25.877h16v162.247h-16z" fill="#60d1e0" transform="matrix(.505 -.863 .863 .505 80.78 354.931)" data-original="#60d1e0" style=""/><path d="m268.23 394.5h172.54v16.001h-172.54z" fill="#60d1e0" transform="matrix(.864 -.504 .504 .864 -154.593 233.677)" data-original="#60d1e0" style=""/><path d="m406.987 352.921 8.026-13.842-54.945-31.852 28.042-37.501 40.487 54.069 12.806-9.59-43.305-57.834 42.309-56.58-12.814-9.582-39.492 52.812-29.252-39.066 52.143-30.022-7.984-13.866-53.82 30.987-62.785-83.849-12.806 9.59 61.625 82.3-64.214 36.972 7.984 13.866 65.891-37.937 33.231 44.38-31.984 42.771-69.117-40.068-8.026 13.842 67.496 39.128-77.89 104.16 12.814 9.582 79.013-105.663z" fill="#60d1e0" data-original="#60d1e0" style=""/><g fill="#348fd9"><circle cx="256" cy="72" r="48" fill="#166ae6" data-original="#348fd9" style="" class=""/><circle cx="256" cy="256" r="48" fill="#166ae6" data-original="#348fd9" style="" class=""/><circle cx="256" cy="440" r="48" fill="#166ae6" data-original="#348fd9" style="" class=""/><circle cx="72" cy="160" r="48" fill="#166ae6" data-original="#348fd9" style="" class=""/><circle cx="72" cy="344" r="48" fill="#166ae6" data-original="#348fd9" style="" class=""/><circle cx="440" cy="160" r="48" fill="#166ae6" data-original="#348fd9" style="" class=""/><circle cx="440" cy="344" r="48" fill="#166ae6" data-original="#348fd9" style="" class=""/></g><path d="m248 72h-16a24.027 24.027 0 0 1 24-24v16a8.009 8.009 0 0 0 -8 8z" fill="#62a9e6" data-original="#62a9e6" style=""/><path d="m248 256h-16a24.027 24.027 0 0 1 24-24v16a8.009 8.009 0 0 0 -8 8z" fill="#62a9e6" data-original="#62a9e6" style=""/><path d="m248 440h-16a24.027 24.027 0 0 1 24-24v16a8.009 8.009 0 0 0 -8 8z" fill="#62a9e6" data-original="#62a9e6" style=""/><path d="m64 160h-16a24.027 24.027 0 0 1 24-24v16a8.009 8.009 0 0 0 -8 8z" fill="#62a9e6" data-original="#62a9e6" style=""/><path d="m64 344h-16a24.027 24.027 0 0 1 24-24v16a8.009 8.009 0 0 0 -8 8z" fill="#62a9e6" data-original="#62a9e6" style=""/><path d="m432 160h-16a24.027 24.027 0 0 1 24-24v16a8.009 8.009 0 0 0 -8 8z" fill="#62a9e6" data-original="#62a9e6" style=""/><path d="m432 344h-16a24.027 24.027 0 0 1 24-24v16a8.009 8.009 0 0 0 -8 8z" fill="#62a9e6" data-original="#62a9e6" style=""/></g></g></svg>
