<?xml version="1.0" encoding="UTF-8" standalone="no" ?>
<!DOCTYPE svg PUBLIC "-//W3C//DTD SVG 1.1//EN" "http://www.w3.org/Graphics/SVG/1.1/DTD/svg11.dtd">
<svg xmlns="http://www.w3.org/2000/svg" xmlns:xlink="http://www.w3.org/1999/xlink" version="1.1" width="1280" height="1024" viewBox="0 0 1280 1024" xml:space="preserve">
<desc>Created with Fabric.js 3.6.3</desc>
<defs>
</defs>
<g transform="matrix(1.9692780337941629 0 0 1.9692780337941629 640.0153846153846 512.012312418764)" id="background-logo"  >
<rect style="stroke: none; stroke-width: 1; stroke-dasharray: none; stroke-linecap: butt; stroke-dashoffset: 0; stroke-linejoin: miter; stroke-miterlimit: 4; fill: rgb(255,255,255); fill-rule: nonzero; opacity: 1;"  paint-order="stroke"  x="-325" y="-260" rx="0" ry="0" width="650" height="520" />
</g>
<g transform="matrix(1.9692780337941629 0 0 1.9692780337941629 640.0153846153846 375.08365072111144)" id="logo-logo"  >
<g style=""  paint-order="stroke"   >
		<g transform="matrix(0.25612101848503943 0 0 0.26782728732957767 -80.70349646837084 -45.8240466304936)"  >
<g style=""  paint-order="stroke"   >
		<g transform="matrix(1 0 0 1 0 0)"  >
<path style="stroke: none; stroke-width: 1; stroke-dasharray: none; stroke-linecap: butt; stroke-dashoffset: 0; stroke-linejoin: miter; stroke-miterlimit: 4; fill: rgb(246,200,62); fill-rule: nonzero; opacity: 1;"  paint-order="stroke"  transform=" translate(-100, -100)" d="M 200 100 A 100 100 0 0 1 100 200 A 100 100 0 0 1 0 100 A 100 100 0 0 1 100 0 A 100 100 0 0 1 200 100 Z" stroke-linecap="round" />
</g>
</g>
</g>
		<g transform="matrix(0.5678265735007502 0 0 0.3895368946219588 -37.15817324361518 -33.65308590125545)"  >
<g style=""  paint-order="stroke"   >
		<g transform="matrix(1 0 0 1 0 0)"  >
<path style="stroke: none; stroke-width: 1; stroke-dasharray: none; stroke-linecap: butt; stroke-dashoffset: 0; stroke-linejoin: miter; stroke-miterlimit: 4; fill: rgb(246,200,62); fill-rule: nonzero; opacity: 1;"  paint-order="stroke"  transform=" translate(-100, -100)" d="M 200 100 A 100 100 0 0 1 100 200 A 100 100 0 0 1 0 100 A 100 100 0 0 1 100 0 A 100 100 0 0 1 200 100 Z" stroke-linecap="round" />
</g>
</g>
</g>
		<g transform="matrix(0.3602821688394327 0 0 0.3602821688394327 -12.13338462962389 -82.10460691448276)"  >
<g style=""  paint-order="stroke"   >
		<g transform="matrix(1 0 0 1 0 0)"  >
<path style="stroke: none; stroke-width: 1; stroke-dasharray: none; stroke-linecap: butt; stroke-dashoffset: 0; stroke-linejoin: miter; stroke-miterlimit: 4; fill: rgb(246,200,62); fill-rule: nonzero; opacity: 1;"  paint-order="stroke"  transform=" translate(-100, -100)" d="M 200 100 A 100 100 0 0 1 100 200 A 100 100 0 0 1 0 100 A 100 100 0 0 1 100 0 A 100 100 0 0 1 200 100 Z" stroke-linecap="round" />
</g>
</g>
</g>
		<g transform="matrix(0.4253502698198092 0 0 0.4253502698198092 52.0011536043275 -53.887549598771244)"  >
<g style=""  paint-order="stroke"   >
		<g transform="matrix(1 0 0 1 0 0)"  >
<path style="stroke: none; stroke-width: 1; stroke-dasharray: none; stroke-linecap: butt; stroke-dashoffset: 0; stroke-linejoin: miter; stroke-miterlimit: 4; fill: rgb(246,200,62); fill-rule: nonzero; opacity: 1;"  paint-order="stroke"  transform=" translate(-100, -100)" d="M 200 100 A 100 100 0 0 1 100 200 A 100 100 0 0 1 0 100 A 100 100 0 0 1 100 0 A 100 100 0 0 1 200 100 Z" stroke-linecap="round" />
</g>
</g>
</g>
		<g transform="matrix(0.23775654798774465 0 0 0.21491006676767271 84.7477110182744 -51.11576868668408)"  >
<g style=""  paint-order="stroke"   >
		<g transform="matrix(1 0 0 1 0 0)"  >
<path style="stroke: none; stroke-width: 1; stroke-dasharray: none; stroke-linecap: butt; stroke-dashoffset: 0; stroke-linejoin: miter; stroke-miterlimit: 4; fill: rgb(246,200,62); fill-rule: nonzero; opacity: 1;"  paint-order="stroke"  transform=" translate(-100, -100)" d="M 200 100 A 100 100 0 0 1 100 200 A 100 100 0 0 1 0 100 A 100 100 0 0 1 100 0 A 100 100 0 0 1 200 100 Z" stroke-linecap="round" />
</g>
</g>
</g>
		<g transform="matrix(0.16782062183404223 0 0 0.16782062183404223 -77.15876841028557 -72.60677536345133)"  >
<g style=""  paint-order="stroke"   >
		<g transform="matrix(1 0 0 1 0 0)"  >
<path style="stroke: none; stroke-width: 1; stroke-dasharray: none; stroke-linecap: butt; stroke-dashoffset: 0; stroke-linejoin: miter; stroke-miterlimit: 4; fill: rgb(255,224,111); fill-rule: nonzero; opacity: 1;"  paint-order="stroke"  transform=" translate(-100, -100)" d="M 200 100 A 100 100 0 0 1 100 200 A 100 100 0 0 1 0 100 A 100 100 0 0 1 100 0 A 100 100 0 0 1 200 100 Z" stroke-linecap="round" />
</g>
</g>
</g>
		<g transform="matrix(0.16782062183404223 0 0 0.16782062183404223 58.29990570152006 -91.13085452456167)"  >
<g style=""  paint-order="stroke"   >
		<g transform="matrix(1 0 0 1 0 0)"  >
<path style="stroke: none; stroke-width: 1; stroke-dasharray: none; stroke-linecap: butt; stroke-dashoffset: 0; stroke-linejoin: miter; stroke-miterlimit: 4; fill: rgb(255,224,111); fill-rule: nonzero; opacity: 1;"  paint-order="stroke"  transform=" translate(-100, -100)" d="M 200 100 A 100 100 0 0 1 100 200 A 100 100 0 0 1 0 100 A 100 100 0 0 1 100 0 A 100 100 0 0 1 200 100 Z" stroke-linecap="round" />
</g>
</g>
</g>
		<g transform="matrix(0.15180114870514846 0 0 0.15180114870514846 -70.2715094903817 -92.73280183745106)"  >
<g style=""  paint-order="stroke"   >
		<g transform="matrix(1 0 0 1 0 0)"  >
<path style="stroke: none; stroke-width: 1; stroke-dasharray: none; stroke-linecap: butt; stroke-dashoffset: 0; stroke-linejoin: miter; stroke-miterlimit: 4; fill: rgb(255,224,111); fill-rule: nonzero; opacity: 1;"  paint-order="stroke"  transform=" translate(-100, -100)" d="M 200 100 A 100 100 0 0 1 100 200 A 100 100 0 0 1 0 100 A 100 100 0 0 1 100 0 A 100 100 0 0 1 200 100 Z" stroke-linecap="round" />
</g>
</g>
</g>
		<g transform="matrix(0.16782062183404223 0 0 0.16782062183404223 31.690847049993806 -96.42257658075215)"  >
<g style=""  paint-order="stroke"   >
		<g transform="matrix(1 0 0 1 0 0)"  >
<path style="stroke: none; stroke-width: 1; stroke-dasharray: none; stroke-linecap: butt; stroke-dashoffset: 0; stroke-linejoin: miter; stroke-miterlimit: 4; fill: rgb(255,224,111); fill-rule: nonzero; opacity: 1;"  paint-order="stroke"  transform=" translate(-100, -100)" d="M 200 100 A 100 100 0 0 1 100 200 A 100 100 0 0 1 0 100 A 100 100 0 0 1 100 0 A 100 100 0 0 1 200 100 Z" stroke-linecap="round" />
</g>
</g>
</g>
		<g transform="matrix(0.16782062183404223 0 0 0.16782062183404223 14.908784866589599 -46.07639003053947)"  >
<g style=""  paint-order="stroke"   >
		<g transform="matrix(1 0 0 1 0 0)"  >
<path style="stroke: none; stroke-width: 1; stroke-dasharray: none; stroke-linecap: butt; stroke-dashoffset: 0; stroke-linejoin: miter; stroke-miterlimit: 4; fill: rgb(255,224,111); fill-rule: nonzero; opacity: 1;"  paint-order="stroke"  transform=" translate(-100, -100)" d="M 200 100 A 100 100 0 0 1 100 200 A 100 100 0 0 1 0 100 A 100 100 0 0 1 100 0 A 100 100 0 0 1 200 100 Z" stroke-linecap="round" />
</g>
</g>
</g>
		<g transform="matrix(0.16782062183404223 0 0 0.16782062183404223 4.648677553780317 -62.858452213943735)"  >
<g style=""  paint-order="stroke"   >
		<g transform="matrix(1 0 0 1 0 0)"  >
<path style="stroke: none; stroke-width: 1; stroke-dasharray: none; stroke-linecap: butt; stroke-dashoffset: 0; stroke-linejoin: miter; stroke-miterlimit: 4; fill: rgb(255,224,111); fill-rule: nonzero; opacity: 1;"  paint-order="stroke"  transform=" translate(-100, -100)" d="M 200 100 A 100 100 0 0 1 100 200 A 100 100 0 0 1 0 100 A 100 100 0 0 1 100 0 A 100 100 0 0 1 200 100 Z" stroke-linecap="round" />
</g>
</g>
</g>
		<g transform="matrix(0.16782062183404223 0 0 0.16782062183404223 -7.3159355610576995 -46.0763900305395)"  >
<g style=""  paint-order="stroke"   >
		<g transform="matrix(1 0 0 1 0 0)"  >
<path style="stroke: none; stroke-width: 1; stroke-dasharray: none; stroke-linecap: butt; stroke-dashoffset: 0; stroke-linejoin: miter; stroke-miterlimit: 4; fill: rgb(255,224,111); fill-rule: nonzero; opacity: 1;"  paint-order="stroke"  transform=" translate(-100, -100)" d="M 200 100 A 100 100 0 0 1 100 200 A 100 100 0 0 1 0 100 A 100 100 0 0 1 100 0 A 100 100 0 0 1 200 100 Z" stroke-linecap="round" />
</g>
</g>
</g>
		<g transform="matrix(0.16782062183404223 0 0 0.16782062183404223 48.47290923339807 -113.20463876415639)"  >
<g style=""  paint-order="stroke"   >
		<g transform="matrix(1 0 0 1 0 0)"  >
<path style="stroke: none; stroke-width: 1; stroke-dasharray: none; stroke-linecap: butt; stroke-dashoffset: 0; stroke-linejoin: miter; stroke-miterlimit: 4; fill: rgb(255,224,111); fill-rule: nonzero; opacity: 1;"  paint-order="stroke"  transform=" translate(-100, -100)" d="M 200 100 A 100 100 0 0 1 100 200 A 100 100 0 0 1 0 100 A 100 100 0 0 1 100 0 A 100 100 0 0 1 200 100 Z" stroke-linecap="round" />
</g>
</g>
</g>
		<g transform="matrix(0.16782062183404223 0 0 0.16782062183404223 -55.091394619866946 -79.64051439734794)"  >
<g style=""  paint-order="stroke"   >
		<g transform="matrix(1 0 0 1 0 0)"  >
<path style="stroke: none; stroke-width: 1; stroke-dasharray: none; stroke-linecap: butt; stroke-dashoffset: 0; stroke-linejoin: miter; stroke-miterlimit: 4; fill: rgb(255,224,111); fill-rule: nonzero; opacity: 1;"  paint-order="stroke"  transform=" translate(-100, -100)" d="M 200 100 A 100 100 0 0 1 100 200 A 100 100 0 0 1 0 100 A 100 100 0 0 1 100 0 A 100 100 0 0 1 200 100 Z" stroke-linecap="round" />
</g>
</g>
</g>
		<g transform="matrix(1.0824013800967593 0 0 -1.679443757467944 -0.28322780737289577 41.507028757839464)"  >
<g style=""  paint-order="stroke"   >
		<g transform="matrix(1 0 0 1 0 0)"  >
<linearGradient id="SVGID_4_699336" gradientUnits="userSpaceOnUse" gradientTransform="matrix(1 0 0 1 -100 -52)"  x1="0" y1="0" x2="0" y2="104">
<stop offset="0%" style="stop-color:rgb(23,234,217);stop-opacity: 1"/>
<stop offset="100%" style="stop-color:rgb(96,120,234);stop-opacity: 1"/>
</linearGradient>
<polygon style="stroke: none; stroke-width: 1; stroke-dasharray: none; stroke-linecap: butt; stroke-dashoffset: 0; stroke-linejoin: miter; stroke-miterlimit: 4; fill: url(#SVGID_4_699336); fill-rule: nonzero; opacity: 1;"  paint-order="stroke"  points="100,52 -100,52 -69.08,-52 69.08000000000001,-52 100,52 " />
</g>
</g>
</g>
		<g transform="matrix(-0.8353482675468729 0 0 -1.6904879574812905 5.684342e-14 42.0813271585335)"  >
<g style=""  paint-order="stroke"   >
		<g transform="matrix(1 0 0 1 0 0)"  >
<polygon style="stroke: none; stroke-width: 1; stroke-dasharray: none; stroke-linecap: butt; stroke-dashoffset: 0; stroke-linejoin: miter; stroke-miterlimit: 4; fill: rgb(253,246,246); fill-rule: nonzero; opacity: 1;"  paint-order="stroke"  points="100,52 -100,52 -69.08,-52 69.08000000000001,-52 100,52 " />
</g>
</g>
</g>
		<g transform="matrix(-0.47030003902534695 0 0 -1.6771752361941352 5.684342e-14 41.38906565160141)"  >
<g style=""  paint-order="stroke"   >
		<g transform="matrix(1 0 0 1 0 0)"  >
<linearGradient id="SVGID_4_699337" gradientUnits="userSpaceOnUse" gradientTransform="matrix(1 0 0 1 -100 -52)"  x1="0" y1="0" x2="0" y2="104">
<stop offset="0%" style="stop-color:rgb(23,234,217);stop-opacity: 1"/>
<stop offset="100%" style="stop-color:rgb(96,120,234);stop-opacity: 1"/>
</linearGradient>
<polygon style="stroke: none; stroke-width: 1; stroke-dasharray: none; stroke-linecap: butt; stroke-dashoffset: 0; stroke-linejoin: miter; stroke-miterlimit: 4; fill: url(#SVGID_4_699337); fill-rule: nonzero; opacity: 1;"  paint-order="stroke"  points="100,52 -100,52 -69.08,-52 69.08000000000001,-52 100,52 " />
</g>
</g>
</g>
</g>
</g>
<g transform="matrix(1.9692780337941629 0 0 1.9692780337941629 639.1691541798699 725.1916735074356)" id="text-logo-path"  >
<path style="stroke: none; stroke-width: 1; stroke-dasharray: none; stroke-linecap: butt; stroke-dashoffset: 0; stroke-linejoin: miter; stroke-miterlimit: 10; fill: rgb(255,255,255); fill-rule: nonzero; opacity: 1;"  paint-order="stroke"  transform=" translate(-154.805, 25.215)" d="M 74.12 -51.35 L 74.12 -40.52 L 70.82 -40.52 L 70.82 -10.82 L 74.12 -10.82 L 74.12 0 L 49.17 0 L 49.17 -10.82 L 52.34 -10.82 L 52.34 -33.92 L 41.12 0 L 31.35 0 L 19.8 -33.59 L 19.8 -10.82 L 22.97 -10.82 L 22.97 0 L 1.32 0 L 1.32 -10.82 L 4.62 -10.82 L 4.62 -40.52 L 1.32 -40.52 L 1.32 -51.35 L 31.55 -51.35 L 38.41 -30.76 L 45.01 -51.35 L 74.12 -51.35 Z M 96.29 0.92 Q 86.92 0.92 81.64 -3.99 Q 76.36 -8.91 76.36 -18.35 L 76.36 -18.35 Q 76.36 -27.79 81.64 -32.7 Q 86.92 -37.62 96.29 -37.62 L 96.29 -37.62 Q 105.8 -37.62 111.01 -32.64 Q 116.23 -27.65 116.23 -18.35 L 116.23 -18.35 Q 116.23 -8.91 110.95 -3.99 Q 105.67 0.92 96.29 0.92 L 96.29 0.92 Z M 96.29 -10.82 Q 98.21 -10.82 99.17 -11.85 Q 100.12 -12.87 100.12 -15.05 L 100.12 -15.05 L 100.12 -21.65 Q 100.12 -23.83 99.17 -24.85 Q 98.21 -25.87 96.29 -25.87 L 96.29 -25.87 Q 94.38 -25.87 93.42 -24.85 Q 92.47 -23.83 92.47 -21.65 L 92.47 -21.65 L 92.47 -15.05 Q 92.47 -12.87 93.42 -11.85 Q 94.38 -10.82 96.29 -10.82 L 96.29 -10.82 Z M 148.57 0 L 128.9 0 L 120.58 -25.87 L 117.81 -25.87 L 117.81 -36.7 L 138.2 -36.7 L 138.2 -25.87 L 135.43 -25.87 L 138.93 -12.8 L 139.59 -12.8 L 143.09 -25.87 L 140.32 -25.87 L 140.32 -36.7 L 159.46 -36.7 L 159.46 -25.87 L 156.68 -25.87 L 148.57 0 Z M 177.94 -40.33 L 164.47 -40.33 L 164.47 -51.35 L 177.94 -51.35 L 177.94 -40.33 Z M 182.29 0 L 161.3 0 L 161.3 -10.82 L 164.21 -10.82 L 164.21 -25.87 L 161.3 -25.87 L 161.3 -36.7 L 179.39 -36.7 L 179.39 -10.82 L 182.29 -10.82 L 182.29 0 Z M 203.81 0.92 Q 194.44 0.92 189.16 -3.99 Q 183.88 -8.91 183.88 -18.35 L 183.88 -18.35 Q 183.88 -27.79 189.16 -32.7 Q 194.44 -37.62 203.81 -37.62 L 203.81 -37.62 Q 213.11 -37.62 217.24 -32.77 Q 221.36 -27.92 221.36 -20.72 L 221.36 -20.72 L 221.36 -15.97 L 199.98 -15.97 L 199.98 -15.58 Q 199.98 -13.13 201.43 -11.98 Q 202.88 -10.82 206.25 -10.82 L 206.25 -10.82 Q 210.28 -10.82 213.91 -11.42 Q 217.54 -12.01 220.24 -12.94 L 220.24 -12.94 L 220.24 -2.38 Q 217.93 -1.12 213.48 -0.1 Q 209.02 0.92 203.81 0.92 L 203.81 0.92 Z M 199.98 -23.23 L 207.64 -23.23 L 207.64 -24.02 Q 207.64 -26.27 206.68 -27.26 Q 205.72 -28.25 203.81 -28.25 L 203.81 -28.25 Q 201.89 -28.25 200.94 -27.23 Q 199.98 -26.2 199.98 -24.02 L 199.98 -24.02 L 199.98 -23.23 Z M 239.38 0.92 Q 231.07 0.92 223.34 -1.72 L 223.34 -1.72 L 223.34 -11.48 L 234.04 -11.48 L 234.04 -10.82 Q 234.04 -7.66 238.06 -7.66 L 238.06 -7.66 Q 241.63 -7.66 241.63 -10.1 L 241.63 -10.1 Q 241.63 -11.42 240.6 -12.08 Q 239.58 -12.74 237.01 -13.2 L 237.01 -13.2 L 233.71 -13.79 Q 223.34 -15.64 223.34 -25.54 L 223.34 -25.54 Q 223.34 -31.28 227.7 -34.45 Q 232.06 -37.62 239.45 -37.62 L 239.45 -37.62 Q 247.7 -37.62 253.37 -34.85 L 253.37 -34.85 L 253.37 -25.67 L 243.34 -25.67 L 243.34 -26.33 Q 243.34 -27.65 242.45 -28.35 Q 241.56 -29.04 239.84 -29.04 L 239.84 -29.04 Q 236.54 -29.04 236.54 -26.93 L 236.54 -26.93 Q 236.54 -25.81 237.47 -25.21 Q 238.39 -24.62 240.83 -24.09 L 240.83 -24.09 L 244.6 -23.36 Q 250.47 -22.24 252.98 -19.21 Q 255.49 -16.17 255.49 -11.42 L 255.49 -11.42 Q 255.49 -5.41 251.3 -2.24 Q 247.1 0.92 239.38 0.92 L 239.38 0.92 Z M 292.12 -26.47 L 305.51 -10.82 L 308.29 -10.82 L 308.29 0 L 283.34 0 L 283.34 -10.82 L 286.04 -10.82 L 282.22 -16.24 L 281.56 -16.24 L 277.73 -10.82 L 280.43 -10.82 L 280.43 0 L 257.33 0 L 257.33 -10.82 L 260.77 -10.82 L 273.44 -25.08 L 260.24 -40.52 L 257.47 -40.52 L 257.47 -51.35 L 282.22 -51.35 L 282.22 -40.52 L 279.71 -40.52 L 283.34 -35.11 L 284 -35.11 L 287.63 -40.52 L 285.12 -40.52 L 285.12 -51.35 L 308.02 -51.35 L 308.02 -40.52 L 304.59 -40.52 L 292.12 -26.47 Z" stroke-linecap="round" />
</g>
<g transform="matrix(1.9692780337941629 0 0 1.9692780337941629 640.0153846153846 444.26141207521596)" id="tagline-532966cd-a8b6-4506-85d3-75293f7d7bb0-logo-path"  >
<path style="stroke: none; stroke-width: 0; stroke-dasharray: none; stroke-linecap: butt; stroke-dashoffset: 0; stroke-linejoin: miter; stroke-miterlimit: 4; fill: rgb(246,200,62); fill-rule: nonzero; opacity: 1;"  paint-order="stroke"  transform=" translate(-54.294999999999995, 36.955)" d="M 106.69 -73.91 L 106.69 -58.33 L 101.94 -58.33 L 101.94 -15.58 L 106.69 -15.58 L 106.69 0 L 70.78 0 L 70.78 -15.58 L 75.34 -15.58 L 75.34 -48.83 L 59.19 0 L 45.13 0 L 28.5 -48.36 L 28.5 -15.58 L 33.06 -15.58 L 33.06 0 L 1.9 0 L 1.9 -15.58 L 6.65 -15.58 L 6.65 -58.33 L 1.9 -58.33 L 1.9 -73.91 L 45.41 -73.91 L 55.29 -44.27 L 64.79 -73.91 L 106.69 -73.91 Z" stroke-linecap="round" />
</g>
<g transform="matrix(1.9692780337941629 0 0 1.9692780337941629 640.0153846153847 884.8972454054899)" id="tagline-eb02475a-f93a-4173-9ecf-e8a655372b7f-logo-path"  >
<path style="stroke: none; stroke-width: 0; stroke-dasharray: none; stroke-linecap: butt; stroke-dashoffset: 0; stroke-linejoin: miter; stroke-miterlimit: 4; fill: rgb(255,255,255); fill-rule: nonzero; opacity: 1;"  paint-order="stroke"  transform=" translate(-293.60999999999996, 16.625)" d="M 13.01 11.83 Q 8.06 7.4 4.95 -0.2 Q 1.84 -7.8 1.84 -16.73 L 1.84 -16.73 Q 1.84 -25.65 4.95 -33.25 Q 8.06 -40.85 13.01 -45.29 L 13.01 -45.29 L 18.56 -42.74 Q 14.99 -37.54 13.16 -30.96 Q 11.32 -24.38 11.32 -16.73 L 11.32 -16.73 Q 11.32 -9.08 13.16 -2.5 Q 14.99 4.08 18.56 9.28 L 18.56 9.28 L 13.01 11.83 Z M 76.35 -39.68 L 76.35 -31.31 L 73.8 -31.31 L 73.8 -8.36 L 76.35 -8.36 L 76.35 0 L 57.07 0 L 57.07 -8.36 L 59.52 -8.36 L 59.52 -26.21 L 50.85 0 L 43.3 0 L 34.37 -25.96 L 34.37 -8.36 L 36.82 -8.36 L 36.82 0 L 20.09 0 L 20.09 -8.36 L 22.64 -8.36 L 22.64 -31.31 L 20.09 -31.31 L 20.09 -39.68 L 43.45 -39.68 L 48.76 -23.77 L 53.86 -39.68 L 76.35 -39.68 Z M 93.48 0.71 Q 86.24 0.71 82.16 -3.09 Q 78.08 -6.89 78.08 -14.18 L 78.08 -14.18 Q 78.08 -21.47 82.16 -25.27 Q 86.24 -29.07 93.48 -29.07 L 93.48 -29.07 Q 100.83 -29.07 104.86 -25.22 Q 108.89 -21.37 108.89 -14.18 L 108.89 -14.18 Q 108.89 -6.89 104.81 -3.09 Q 100.73 0.71 93.48 0.71 L 93.48 0.71 Z M 93.48 -8.36 Q 94.96 -8.36 95.7 -9.15 Q 96.44 -9.95 96.44 -11.63 L 96.44 -11.63 L 96.44 -16.73 Q 96.44 -18.41 95.7 -19.2 Q 94.96 -19.99 93.48 -19.99 L 93.48 -19.99 Q 92 -19.99 91.26 -19.2 Q 90.53 -18.41 90.53 -16.73 L 90.53 -16.73 L 90.53 -11.63 Q 90.53 -9.95 91.26 -9.15 Q 92 -8.36 93.48 -8.36 L 93.48 -8.36 Z M 133.88 0 L 118.68 0 L 112.25 -19.99 L 110.11 -19.99 L 110.11 -28.36 L 125.87 -28.36 L 125.87 -19.99 L 123.73 -19.99 L 126.43 -9.89 L 126.94 -9.89 L 129.64 -19.99 L 127.5 -19.99 L 127.5 -28.36 L 142.29 -28.36 L 142.29 -19.99 L 140.15 -19.99 L 133.88 0 Z M 156.57 -31.16 L 146.17 -31.16 L 146.17 -39.68 L 156.57 -39.68 L 156.57 -31.16 Z M 159.94 0 L 143.72 0 L 143.72 -8.36 L 145.96 -8.36 L 145.96 -19.99 L 143.72 -19.99 L 143.72 -28.36 L 157.69 -28.36 L 157.69 -8.36 L 159.94 -8.36 L 159.94 0 Z M 176.56 0.71 Q 169.32 0.71 165.24 -3.09 Q 161.16 -6.89 161.16 -14.18 L 161.16 -14.18 Q 161.16 -21.47 165.24 -25.27 Q 169.32 -29.07 176.56 -29.07 L 176.56 -29.07 Q 183.75 -29.07 186.94 -25.32 Q 190.13 -21.57 190.13 -16.01 L 190.13 -16.01 L 190.13 -12.34 L 173.6 -12.34 L 173.6 -12.04 Q 173.6 -10.15 174.73 -9.26 Q 175.85 -8.36 178.45 -8.36 L 178.45 -8.36 Q 181.56 -8.36 184.37 -8.82 Q 187.17 -9.28 189.26 -10 L 189.26 -10 L 189.26 -1.84 Q 187.48 -0.87 184.03 -0.08 Q 180.59 0.71 176.56 0.71 L 176.56 0.71 Z M 173.6 -17.95 L 179.52 -17.95 L 179.52 -18.56 Q 179.52 -20.3 178.78 -21.06 Q 178.04 -21.83 176.56 -21.83 L 176.56 -21.83 Q 175.08 -21.83 174.34 -21.04 Q 173.6 -20.25 173.6 -18.56 L 173.6 -18.56 L 173.6 -17.95 Z M 222.87 0.71 Q 217.97 0.71 213.61 -0.13 Q 209.25 -0.97 206.91 -2.04 L 206.91 -2.04 L 206.91 -12.14 L 218.13 -12.14 Q 218.13 -10.56 218.84 -9.84 Q 219.56 -9.13 221.44 -9.13 L 221.44 -9.13 Q 223.02 -9.13 223.71 -9.61 Q 224.4 -10.1 224.4 -11.07 L 224.4 -11.07 Q 224.4 -11.88 223.74 -12.47 Q 223.07 -13.06 221.44 -13.67 L 221.44 -13.67 L 217.06 -15.2 Q 211.4 -17.34 208.92 -20.25 Q 206.45 -23.15 206.45 -28.1 L 206.45 -28.1 Q 206.45 -34.12 210.4 -37.26 Q 214.35 -40.39 223.58 -40.39 L 223.58 -40.39 Q 228.02 -40.39 231.92 -39.5 Q 235.82 -38.61 238.22 -37.13 L 238.22 -37.13 L 238.22 -28 L 228.02 -28 Q 228.02 -30.55 224.86 -30.55 L 224.86 -30.55 Q 223.33 -30.55 222.69 -30.17 Q 222.05 -29.78 222.05 -28.82 L 222.05 -28.82 Q 222.05 -27.95 222.79 -27.44 Q 223.53 -26.93 225.22 -26.37 L 225.22 -26.37 L 229.65 -24.84 Q 235.06 -23 237.53 -20.07 Q 240.01 -17.14 240.01 -12.39 L 240.01 -12.39 Q 240.01 -5.92 235.65 -2.6 Q 231.29 0.71 222.87 0.71 L 222.87 0.71 Z M 253.93 0.71 Q 248.52 0.71 245.79 -1.91 Q 243.07 -4.54 243.07 -10.76 L 243.07 -10.76 L 243.07 -19.99 L 240.82 -19.99 L 240.82 -28.36 Q 242.76 -28.36 243.73 -29.35 Q 244.7 -30.35 244.7 -32.08 L 244.7 -32.08 L 244.7 -34.37 L 255.51 -34.37 L 255.51 -28.36 L 262.4 -28.36 L 262.4 -19.99 L 255.51 -19.99 L 255.51 -11.63 Q 255.51 -9.95 256.25 -9.15 Q 256.99 -8.36 258.47 -8.36 L 258.47 -8.36 Q 260.41 -8.36 262.7 -8.82 L 262.7 -8.82 L 262.7 -0.82 Q 261.27 -0.26 258.85 0.23 Q 256.43 0.71 253.93 0.71 L 253.93 0.71 Z M 286.11 -29.07 Q 287.13 -29.07 288.05 -28.87 Q 288.97 -28.66 289.58 -28.36 L 289.58 -28.36 L 289.58 -18.62 Q 287.49 -19.48 285.09 -19.48 L 285.09 -19.48 Q 281.88 -19.48 280.14 -17.8 Q 278.41 -16.12 278.41 -12.8 L 278.41 -12.8 L 278.41 -8.36 L 283 -8.36 L 283 0 L 264.44 0 L 264.44 -8.36 L 266.68 -8.36 L 266.68 -19.99 L 264.44 -19.99 L 264.44 -28.36 L 278.41 -28.36 L 278.41 -24.63 Q 279.84 -26.78 281.67 -27.92 Q 283.51 -29.07 286.11 -29.07 L 286.11 -29.07 Z M 306.41 0.71 Q 299.17 0.71 295.09 -3.09 Q 291.01 -6.89 291.01 -14.18 L 291.01 -14.18 Q 291.01 -21.47 295.09 -25.27 Q 299.17 -29.07 306.41 -29.07 L 306.41 -29.07 Q 313.6 -29.07 316.79 -25.32 Q 319.97 -21.57 319.97 -16.01 L 319.97 -16.01 L 319.97 -12.34 L 303.45 -12.34 L 303.45 -12.04 Q 303.45 -10.15 304.57 -9.26 Q 305.69 -8.36 308.3 -8.36 L 308.3 -8.36 Q 311.41 -8.36 314.21 -8.82 Q 317.02 -9.28 319.11 -10 L 319.11 -10 L 319.11 -1.84 Q 317.32 -0.87 313.88 -0.08 Q 310.44 0.71 306.41 0.71 L 306.41 0.71 Z M 303.45 -17.95 L 309.37 -17.95 L 309.37 -18.56 Q 309.37 -20.3 308.63 -21.06 Q 307.89 -21.83 306.41 -21.83 L 306.41 -21.83 Q 304.93 -21.83 304.19 -21.04 Q 303.45 -20.25 303.45 -18.56 L 303.45 -18.56 L 303.45 -17.95 Z M 348.99 -8.36 L 351.24 -8.36 L 351.24 0 L 337.77 0 L 337.77 -3.47 Q 336.65 -1.84 334.64 -0.56 Q 332.62 0.71 329.72 0.71 L 329.72 0.71 Q 325.89 0.71 323.7 -1.33 Q 321.5 -3.37 321.5 -7.09 L 321.5 -7.09 Q 321.5 -16.73 337.88 -16.98 L 337.88 -16.98 Q 337.72 -18.72 336.55 -19.35 Q 335.38 -19.99 332.57 -19.99 L 332.57 -19.99 Q 330.28 -19.99 327.65 -19.51 Q 325.02 -19.02 322.83 -18.21 L 322.83 -18.21 L 322.83 -27.59 Q 325.53 -28.25 328.69 -28.66 Q 331.86 -29.07 334.87 -29.07 L 334.87 -29.07 Q 342.47 -29.07 345.73 -26.32 Q 348.99 -23.56 348.99 -17.8 L 348.99 -17.8 L 348.99 -8.36 Z M 337.77 -11.63 L 337.77 -11.93 Q 335.48 -11.93 334.23 -11.32 Q 332.98 -10.71 332.98 -9.28 L 332.98 -9.28 Q 332.98 -8.42 333.51 -7.88 Q 334.05 -7.34 335.02 -7.34 L 335.02 -7.34 Q 336.35 -7.34 337.06 -8.47 Q 337.77 -9.59 337.77 -11.63 L 337.77 -11.63 Z M 402.14 -8.36 L 404.38 -8.36 L 404.38 0 L 388.26 0 L 388.26 -8.36 L 390.41 -8.36 L 390.41 -16.73 Q 390.41 -18.41 389.69 -19.2 Q 388.98 -19.99 387.55 -19.99 L 387.55 -19.99 Q 384.49 -19.99 384.49 -16.73 L 384.49 -16.73 L 384.49 -8.36 L 386.63 -8.36 L 386.63 0 L 370.62 0 L 370.62 -8.36 L 372.76 -8.36 L 372.76 -16.73 Q 372.76 -18.41 372.05 -19.2 Q 371.33 -19.99 369.9 -19.99 L 369.9 -19.99 Q 366.84 -19.99 366.84 -16.73 L 366.84 -16.73 L 366.84 -8.36 L 368.99 -8.36 L 368.99 0 L 352.87 0 L 352.87 -8.36 L 355.11 -8.36 L 355.11 -19.99 L 352.87 -19.99 L 352.87 -28.36 L 366.84 -28.36 L 366.84 -24.38 Q 370.52 -29.07 376.02 -29.07 L 376.02 -29.07 Q 379.13 -29.07 381.1 -27.62 Q 383.06 -26.16 383.88 -23.51 L 383.88 -23.51 Q 385.71 -26.16 388.08 -27.59 Q 390.46 -29.02 393.67 -29.02 L 393.67 -29.02 Q 397.9 -29.02 400.02 -26.37 Q 402.14 -23.72 402.14 -19.07 L 402.14 -19.07 L 402.14 -8.36 Z M 418.86 -31.16 L 408.46 -31.16 L 408.46 -39.68 L 418.86 -39.68 L 418.86 -31.16 Z M 422.23 0 L 406.01 0 L 406.01 -8.36 L 408.25 -8.36 L 408.25 -19.99 L 406.01 -19.99 L 406.01 -28.36 L 419.99 -28.36 L 419.99 -8.36 L 422.23 -8.36 L 422.23 0 Z M 455.28 -8.36 L 457.52 -8.36 L 457.52 0 L 441.41 0 L 441.41 -8.36 L 443.55 -8.36 L 443.55 -16.73 Q 443.55 -18.41 442.83 -19.2 Q 442.12 -19.99 440.69 -19.99 L 440.69 -19.99 Q 437.63 -19.99 437.63 -16.73 L 437.63 -16.73 L 437.63 -8.36 L 439.77 -8.36 L 439.77 0 L 423.66 0 L 423.66 -8.36 L 425.9 -8.36 L 425.9 -19.99 L 423.66 -19.99 L 423.66 -28.36 L 437.63 -28.36 L 437.63 -24.38 Q 441.3 -29.07 446.81 -29.07 L 446.81 -29.07 Q 451.04 -29.07 453.16 -26.42 Q 455.28 -23.77 455.28 -19.13 L 455.28 -19.13 L 455.28 -8.36 Z M 474.1 12.04 Q 470.42 12.04 467.08 11.53 Q 463.74 11.02 461.91 10.35 L 461.91 10.35 L 461.91 1.99 Q 467.31 2.96 471.6 2.96 L 471.6 2.96 Q 474.5 2.96 475.8 2.07 Q 477.11 1.17 477.11 -1.28 L 477.11 -1.28 L 477.11 -3.47 Q 475.83 -1.84 473.82 -0.56 Q 471.8 0.71 469.2 0.71 L 469.2 0.71 Q 464 0.71 461.37 -3.16 Q 458.75 -7.04 458.75 -14.18 L 458.75 -14.18 Q 458.75 -21.32 461.37 -25.19 Q 464 -29.07 469.2 -29.07 L 469.2 -29.07 Q 471.8 -29.07 473.82 -27.8 Q 475.83 -26.52 477.11 -24.89 L 477.11 -24.89 L 477.11 -28.36 L 491.08 -28.36 L 491.08 -19.99 L 488.84 -19.99 L 488.84 -2.04 Q 488.84 5.36 485.16 8.7 Q 481.49 12.04 474.1 12.04 L 474.1 12.04 Z M 474.15 -8.36 Q 475.63 -8.36 476.37 -9.15 Q 477.11 -9.95 477.11 -11.63 L 477.11 -11.63 L 477.11 -16.73 Q 477.11 -18.41 476.37 -19.2 Q 475.63 -19.99 474.15 -19.99 L 474.15 -19.99 Q 472.67 -19.99 471.93 -19.2 Q 471.19 -18.41 471.19 -16.73 L 471.19 -16.73 L 471.19 -11.63 Q 471.19 -9.95 471.93 -9.15 Q 472.67 -8.36 474.15 -8.36 L 474.15 -8.36 Z M 526.98 0.71 Q 518.98 0.71 514.62 -2.81 Q 510.25 -6.32 510.25 -14.23 L 510.25 -14.23 L 510.25 -31.31 L 507.7 -31.31 L 507.7 -39.68 L 526.58 -39.68 L 526.58 -31.31 L 524.53 -31.31 L 524.53 -11.63 Q 524.53 -9.95 525.27 -9.15 Q 526.01 -8.36 527.49 -8.36 L 527.49 -8.36 Q 528.97 -8.36 529.71 -9.15 Q 530.45 -9.95 530.45 -11.63 L 530.45 -11.63 L 530.45 -31.31 L 528.41 -31.31 L 528.41 -39.68 L 545.9 -39.68 L 545.9 -31.31 L 543.35 -31.31 L 543.35 -14.23 Q 543.35 -6.32 539.12 -2.81 Q 534.89 0.71 526.98 0.71 L 526.98 0.71 Z M 567.12 0 L 547.74 0 L 547.74 -8.36 L 550.29 -8.36 L 550.29 -31.31 L 547.74 -31.31 L 547.74 -39.68 L 567.12 -39.68 L 567.12 -31.31 L 564.57 -31.31 L 564.57 -8.36 L 567.12 -8.36 L 567.12 0 Z M 574.21 11.83 L 568.65 9.28 Q 572.22 4.08 574.06 -2.5 Q 575.89 -9.08 575.89 -16.73 L 575.89 -16.73 Q 575.89 -24.38 574.06 -30.96 Q 572.22 -37.54 568.65 -42.74 L 568.65 -42.74 L 574.21 -45.29 Q 579.16 -40.85 582.27 -33.25 Q 585.38 -25.65 585.38 -16.73 L 585.38 -16.73 Q 585.38 -7.8 582.27 -0.2 Q 579.16 7.4 574.21 11.83 L 574.21 11.83 Z" stroke-linecap="round" />
</g>
</svg>