<?xml version="1.0" encoding="UTF-8" standalone="no" ?>
<!DOCTYPE svg PUBLIC "-//W3C//DTD SVG 1.1//EN" "http://www.w3.org/Graphics/SVG/1.1/DTD/svg11.dtd">
<svg xmlns="http://www.w3.org/2000/svg" xmlns:xlink="http://www.w3.org/1999/xlink" version="1.1" width="1280" height="1024" viewBox="0 0 1280 1024" xml:space="preserve">
<desc>Created with Fabric.js 3.6.3</desc>
<defs>
</defs>
<g transform="matrix(1.9692780337941629 0 0 1.9692780337941629 640.0153846153846 512.012312418764)" id="background-logo"  >
<rect style="stroke: none; stroke-width: 1; stroke-dasharray: none; stroke-linecap: butt; stroke-dashoffset: 0; stroke-linejoin: miter; stroke-miterlimit: 4; fill: rgb(6,32,42); fill-rule: nonzero; opacity: 1;"  paint-order="stroke"  x="-325" y="-260" rx="0" ry="0" width="650" height="520" />
</g>
<g transform="matrix(1.9692780337941629 0 0 1.9692780337941629 640.0153846153846 375.08365072111144)" id="logo-logo"  >
<g style=""  paint-order="stroke"   >
		<g transform="matrix(0.25612101848503943 0 0 0.26782728732957767 -80.70349646837084 -45.8240466304936)"  >
<g style=""  paint-order="stroke"   >
		<g transform="matrix(1 0 0 1 0 0)"  >
<path style="stroke: none; stroke-width: 1; stroke-dasharray: none; stroke-linecap: butt; stroke-dashoffset: 0; stroke-linejoin: miter; stroke-miterlimit: 4; fill: rgb(246,200,62); fill-rule: nonzero; opacity: 1;"  paint-order="stroke"  transform=" translate(-100, -100)" d="M 200 100 A 100 100 0 0 1 100 200 A 100 100 0 0 1 0 100 A 100 100 0 0 1 100 0 A 100 100 0 0 1 200 100 Z" stroke-linecap="round" />
</g>
</g>
</g>
		<g transform="matrix(0.5678265735007502 0 0 0.3895368946219588 -37.15817324361518 -33.65308590125545)"  >
<g style=""  paint-order="stroke"   >
		<g transform="matrix(1 0 0 1 0 0)"  >
<path style="stroke: none; stroke-width: 1; stroke-dasharray: none; stroke-linecap: butt; stroke-dashoffset: 0; stroke-linejoin: miter; stroke-miterlimit: 4; fill: rgb(246,200,62); fill-rule: nonzero; opacity: 1;"  paint-order="stroke"  transform=" translate(-100, -100)" d="M 200 100 A 100 100 0 0 1 100 200 A 100 100 0 0 1 0 100 A 100 100 0 0 1 100 0 A 100 100 0 0 1 200 100 Z" stroke-linecap="round" />
</g>
</g>
</g>
		<g transform="matrix(0.3602821688394327 0 0 0.3602821688394327 -12.13338462962389 -82.10460691448276)"  >
<g style=""  paint-order="stroke"   >
		<g transform="matrix(1 0 0 1 0 0)"  >
<path style="stroke: none; stroke-width: 1; stroke-dasharray: none; stroke-linecap: butt; stroke-dashoffset: 0; stroke-linejoin: miter; stroke-miterlimit: 4; fill: rgb(246,200,62); fill-rule: nonzero; opacity: 1;"  paint-order="stroke"  transform=" translate(-100, -100)" d="M 200 100 A 100 100 0 0 1 100 200 A 100 100 0 0 1 0 100 A 100 100 0 0 1 100 0 A 100 100 0 0 1 200 100 Z" stroke-linecap="round" />
</g>
</g>
</g>
		<g transform="matrix(0.4253502698198092 0 0 0.4253502698198092 52.0011536043275 -53.887549598771244)"  >
<g style=""  paint-order="stroke"   >
		<g transform="matrix(1 0 0 1 0 0)"  >
<path style="stroke: none; stroke-width: 1; stroke-dasharray: none; stroke-linecap: butt; stroke-dashoffset: 0; stroke-linejoin: miter; stroke-miterlimit: 4; fill: rgb(246,200,62); fill-rule: nonzero; opacity: 1;"  paint-order="stroke"  transform=" translate(-100, -100)" d="M 200 100 A 100 100 0 0 1 100 200 A 100 100 0 0 1 0 100 A 100 100 0 0 1 100 0 A 100 100 0 0 1 200 100 Z" stroke-linecap="round" />
</g>
</g>
</g>
		<g transform="matrix(0.23775654798774465 0 0 0.21491006676767271 84.7477110182744 -51.11576868668408)"  >
<g style=""  paint-order="stroke"   >
		<g transform="matrix(1 0 0 1 0 0)"  >
<path style="stroke: none; stroke-width: 1; stroke-dasharray: none; stroke-linecap: butt; stroke-dashoffset: 0; stroke-linejoin: miter; stroke-miterlimit: 4; fill: rgb(246,200,62); fill-rule: nonzero; opacity: 1;"  paint-order="stroke"  transform=" translate(-100, -100)" d="M 200 100 A 100 100 0 0 1 100 200 A 100 100 0 0 1 0 100 A 100 100 0 0 1 100 0 A 100 100 0 0 1 200 100 Z" stroke-linecap="round" />
</g>
</g>
</g>
		<g transform="matrix(0.16782062183404223 0 0 0.16782062183404223 -77.15876841028557 -72.60677536345133)"  >
<g style=""  paint-order="stroke"   >
		<g transform="matrix(1 0 0 1 0 0)"  >
<path style="stroke: none; stroke-width: 1; stroke-dasharray: none; stroke-linecap: butt; stroke-dashoffset: 0; stroke-linejoin: miter; stroke-miterlimit: 4; fill: rgb(255,224,111); fill-rule: nonzero; opacity: 1;"  paint-order="stroke"  transform=" translate(-100, -100)" d="M 200 100 A 100 100 0 0 1 100 200 A 100 100 0 0 1 0 100 A 100 100 0 0 1 100 0 A 100 100 0 0 1 200 100 Z" stroke-linecap="round" />
</g>
</g>
</g>
		<g transform="matrix(0.16782062183404223 0 0 0.16782062183404223 58.29990570152006 -91.13085452456167)"  >
<g style=""  paint-order="stroke"   >
		<g transform="matrix(1 0 0 1 0 0)"  >
<path style="stroke: none; stroke-width: 1; stroke-dasharray: none; stroke-linecap: butt; stroke-dashoffset: 0; stroke-linejoin: miter; stroke-miterlimit: 4; fill: rgb(255,224,111); fill-rule: nonzero; opacity: 1;"  paint-order="stroke"  transform=" translate(-100, -100)" d="M 200 100 A 100 100 0 0 1 100 200 A 100 100 0 0 1 0 100 A 100 100 0 0 1 100 0 A 100 100 0 0 1 200 100 Z" stroke-linecap="round" />
</g>
</g>
</g>
		<g transform="matrix(0.15180114870514846 0 0 0.15180114870514846 -70.2715094903817 -92.73280183745106)"  >
<g style=""  paint-order="stroke"   >
		<g transform="matrix(1 0 0 1 0 0)"  >
<path style="stroke: none; stroke-width: 1; stroke-dasharray: none; stroke-linecap: butt; stroke-dashoffset: 0; stroke-linejoin: miter; stroke-miterlimit: 4; fill: rgb(255,224,111); fill-rule: nonzero; opacity: 1;"  paint-order="stroke"  transform=" translate(-100, -100)" d="M 200 100 A 100 100 0 0 1 100 200 A 100 100 0 0 1 0 100 A 100 100 0 0 1 100 0 A 100 100 0 0 1 200 100 Z" stroke-linecap="round" />
</g>
</g>
</g>
		<g transform="matrix(0.16782062183404223 0 0 0.16782062183404223 31.690847049993806 -96.42257658075215)"  >
<g style=""  paint-order="stroke"   >
		<g transform="matrix(1 0 0 1 0 0)"  >
<path style="stroke: none; stroke-width: 1; stroke-dasharray: none; stroke-linecap: butt; stroke-dashoffset: 0; stroke-linejoin: miter; stroke-miterlimit: 4; fill: rgb(255,224,111); fill-rule: nonzero; opacity: 1;"  paint-order="stroke"  transform=" translate(-100, -100)" d="M 200 100 A 100 100 0 0 1 100 200 A 100 100 0 0 1 0 100 A 100 100 0 0 1 100 0 A 100 100 0 0 1 200 100 Z" stroke-linecap="round" />
</g>
</g>
</g>
		<g transform="matrix(0.16782062183404223 0 0 0.16782062183404223 14.908784866589599 -46.07639003053947)"  >
<g style=""  paint-order="stroke"   >
		<g transform="matrix(1 0 0 1 0 0)"  >
<path style="stroke: none; stroke-width: 1; stroke-dasharray: none; stroke-linecap: butt; stroke-dashoffset: 0; stroke-linejoin: miter; stroke-miterlimit: 4; fill: rgb(255,224,111); fill-rule: nonzero; opacity: 1;"  paint-order="stroke"  transform=" translate(-100, -100)" d="M 200 100 A 100 100 0 0 1 100 200 A 100 100 0 0 1 0 100 A 100 100 0 0 1 100 0 A 100 100 0 0 1 200 100 Z" stroke-linecap="round" />
</g>
</g>
</g>
		<g transform="matrix(0.16782062183404223 0 0 0.16782062183404223 4.648677553780317 -62.858452213943735)"  >
<g style=""  paint-order="stroke"   >
		<g transform="matrix(1 0 0 1 0 0)"  >
<path style="stroke: none; stroke-width: 1; stroke-dasharray: none; stroke-linecap: butt; stroke-dashoffset: 0; stroke-linejoin: miter; stroke-miterlimit: 4; fill: rgb(255,224,111); fill-rule: nonzero; opacity: 1;"  paint-order="stroke"  transform=" translate(-100, -100)" d="M 200 100 A 100 100 0 0 1 100 200 A 100 100 0 0 1 0 100 A 100 100 0 0 1 100 0 A 100 100 0 0 1 200 100 Z" stroke-linecap="round" />
</g>
</g>
</g>
		<g transform="matrix(0.16782062183404223 0 0 0.16782062183404223 -7.3159355610576995 -46.0763900305395)"  >
<g style=""  paint-order="stroke"   >
		<g transform="matrix(1 0 0 1 0 0)"  >
<path style="stroke: none; stroke-width: 1; stroke-dasharray: none; stroke-linecap: butt; stroke-dashoffset: 0; stroke-linejoin: miter; stroke-miterlimit: 4; fill: rgb(255,224,111); fill-rule: nonzero; opacity: 1;"  paint-order="stroke"  transform=" translate(-100, -100)" d="M 200 100 A 100 100 0 0 1 100 200 A 100 100 0 0 1 0 100 A 100 100 0 0 1 100 0 A 100 100 0 0 1 200 100 Z" stroke-linecap="round" />
</g>
</g>
</g>
		<g transform="matrix(0.16782062183404223 0 0 0.16782062183404223 48.47290923339807 -113.20463876415639)"  >
<g style=""  paint-order="stroke"   >
		<g transform="matrix(1 0 0 1 0 0)"  >
<path style="stroke: none; stroke-width: 1; stroke-dasharray: none; stroke-linecap: butt; stroke-dashoffset: 0; stroke-linejoin: miter; stroke-miterlimit: 4; fill: rgb(255,224,111); fill-rule: nonzero; opacity: 1;"  paint-order="stroke"  transform=" translate(-100, -100)" d="M 200 100 A 100 100 0 0 1 100 200 A 100 100 0 0 1 0 100 A 100 100 0 0 1 100 0 A 100 100 0 0 1 200 100 Z" stroke-linecap="round" />
</g>
</g>
</g>
		<g transform="matrix(0.16782062183404223 0 0 0.16782062183404223 -55.091394619866946 -79.64051439734794)"  >
<g style=""  paint-order="stroke"   >
		<g transform="matrix(1 0 0 1 0 0)"  >
<path style="stroke: none; stroke-width: 1; stroke-dasharray: none; stroke-linecap: butt; stroke-dashoffset: 0; stroke-linejoin: miter; stroke-miterlimit: 4; fill: rgb(255,224,111); fill-rule: nonzero; opacity: 1;"  paint-order="stroke"  transform=" translate(-100, -100)" d="M 200 100 A 100 100 0 0 1 100 200 A 100 100 0 0 1 0 100 A 100 100 0 0 1 100 0 A 100 100 0 0 1 200 100 Z" stroke-linecap="round" />
</g>
</g>
</g>
		<g transform="matrix(1.0824013800967593 0 0 -1.679443757467944 -0.28322780737289577 41.507028757839464)"  >
<g style=""  paint-order="stroke"   >
		<g transform="matrix(1 0 0 1 0 0)"  >
<linearGradient id="SVGID_4_4_4_4_139015" gradientUnits="userSpaceOnUse" gradientTransform="matrix(1 0 0 1 -100 -52)"  x1="0" y1="0" x2="0" y2="104">
<stop offset="0%" style="stop-color:rgb(23,234,217);stop-opacity: 1"/>
<stop offset="100%" style="stop-color:rgb(96,120,234);stop-opacity: 1"/>
</linearGradient>
<polygon style="stroke: none; stroke-width: 1; stroke-dasharray: none; stroke-linecap: butt; stroke-dashoffset: 0; stroke-linejoin: miter; stroke-miterlimit: 4; fill: url(#SVGID_4_4_4_4_139015); fill-rule: nonzero; opacity: 1;"  paint-order="stroke"  points="100,52 -100,52 -69.08,-52 69.08000000000001,-52 100,52 " />
</g>
</g>
</g>
		<g transform="matrix(-0.8353482675468729 0 0 -1.6904879574812905 5.684342e-14 42.0813271585335)"  >
<g style=""  paint-order="stroke"   >
		<g transform="matrix(1 0 0 1 0 0)"  >
<polygon style="stroke: none; stroke-width: 1; stroke-dasharray: none; stroke-linecap: butt; stroke-dashoffset: 0; stroke-linejoin: miter; stroke-miterlimit: 4; fill: rgb(253,246,246); fill-rule: nonzero; opacity: 1;"  paint-order="stroke"  points="100,52 -100,52 -69.08,-52 69.08000000000001,-52 100,52 " />
</g>
</g>
</g>
		<g transform="matrix(-0.47030003902534695 0 0 -1.6771752361941352 5.684342e-14 41.38906565160141)"  >
<g style=""  paint-order="stroke"   >
		<g transform="matrix(1 0 0 1 0 0)"  >
<linearGradient id="SVGID_4_4_4_4_139016" gradientUnits="userSpaceOnUse" gradientTransform="matrix(1 0 0 1 -100 -52)"  x1="0" y1="0" x2="0" y2="104">
<stop offset="0%" style="stop-color:rgb(23,234,217);stop-opacity: 1"/>
<stop offset="100%" style="stop-color:rgb(96,120,234);stop-opacity: 1"/>
</linearGradient>
<polygon style="stroke: none; stroke-width: 1; stroke-dasharray: none; stroke-linecap: butt; stroke-dashoffset: 0; stroke-linejoin: miter; stroke-miterlimit: 4; fill: url(#SVGID_4_4_4_4_139016); fill-rule: nonzero; opacity: 1;"  paint-order="stroke"  points="100,52 -100,52 -69.08,-52 69.08000000000001,-52 100,52 " />
</g>
</g>
</g>
</g>
</g>
<g transform="matrix(1.9692780337941629 0 0 1.9692780337941629 639.0138121903631 729.8911169805108)" id="text-logo-path"  >
<path style="stroke: none; stroke-width: 1; stroke-dasharray: none; stroke-linecap: butt; stroke-dashoffset: 0; stroke-linejoin: miter; stroke-miterlimit: 10; fill: rgb(255,255,255); fill-rule: nonzero; opacity: 1;"  paint-order="stroke"  transform=" translate(-235.51, 21.785)" d="M 62.89 -43.57 L 62.89 -34.38 L 60.09 -34.38 L 60.09 -9.18 L 62.89 -9.18 L 62.89 0 L 41.72 0 L 41.72 -9.18 L 44.41 -9.18 L 44.41 -28.78 L 34.89 0 L 26.6 0 L 16.8 -28.5 L 16.8 -9.18 L 19.49 -9.18 L 19.49 0 L 1.12 0 L 1.12 -9.18 L 3.92 -9.18 L 3.92 -34.38 L 1.12 -34.38 L 1.12 -43.57 L 26.77 -43.57 L 32.59 -26.1 L 38.19 -43.57 L 62.89 -43.57 Z M 81.7 0.78 Q 73.75 0.78 69.27 -3.39 Q 64.79 -7.56 64.79 -15.57 L 64.79 -15.57 Q 64.79 -23.58 69.27 -27.75 Q 73.75 -31.92 81.7 -31.92 L 81.7 -31.92 Q 89.77 -31.92 94.19 -27.69 Q 98.62 -23.46 98.62 -15.57 L 98.62 -15.57 Q 98.62 -7.56 94.14 -3.39 Q 89.66 0.78 81.7 0.78 L 81.7 0.78 Z M 81.7 -9.18 Q 83.33 -9.18 84.14 -10.05 Q 84.95 -10.92 84.95 -12.77 L 84.95 -12.77 L 84.95 -18.37 Q 84.95 -20.22 84.14 -21.08 Q 83.33 -21.95 81.7 -21.95 L 81.7 -21.95 Q 80.08 -21.95 79.27 -21.08 Q 78.46 -20.22 78.46 -18.37 L 78.46 -18.37 L 78.46 -12.77 Q 78.46 -10.92 79.27 -10.05 Q 80.08 -9.18 81.7 -9.18 L 81.7 -9.18 Z M 126.06 0 L 109.37 0 L 102.31 -21.95 L 99.96 -21.95 L 99.96 -31.14 L 117.26 -31.14 L 117.26 -21.95 L 114.91 -21.95 L 117.88 -10.86 L 118.44 -10.86 L 121.41 -21.95 L 119.06 -21.95 L 119.06 -31.14 L 135.3 -31.14 L 135.3 -21.95 L 132.94 -21.95 L 126.06 0 Z M 150.98 -34.22 L 139.55 -34.22 L 139.55 -43.57 L 150.98 -43.57 L 150.98 -34.22 Z M 154.67 0 L 136.86 0 L 136.86 -9.18 L 139.33 -9.18 L 139.33 -21.95 L 136.86 -21.95 L 136.86 -31.14 L 152.21 -31.14 L 152.21 -9.18 L 154.67 -9.18 L 154.67 0 Z M 172.93 0.78 Q 164.98 0.78 160.5 -3.39 Q 156.02 -7.56 156.02 -15.57 L 156.02 -15.57 Q 156.02 -23.58 160.5 -27.75 Q 164.98 -31.92 172.93 -31.92 L 172.93 -31.92 Q 180.82 -31.92 184.32 -27.8 Q 187.82 -23.69 187.82 -17.58 L 187.82 -17.58 L 187.82 -13.55 L 169.68 -13.55 L 169.68 -13.22 Q 169.68 -11.14 170.91 -10.16 Q 172.14 -9.18 175 -9.18 L 175 -9.18 Q 178.42 -9.18 181.5 -9.69 Q 184.58 -10.19 186.87 -10.98 L 186.87 -10.98 L 186.87 -2.02 Q 184.91 -0.95 181.13 -0.08 Q 177.35 0.78 172.93 0.78 L 172.93 0.78 Z M 169.68 -19.71 L 176.18 -19.71 L 176.18 -20.38 Q 176.18 -22.29 175.36 -23.13 Q 174.55 -23.97 172.93 -23.97 L 172.93 -23.97 Q 171.3 -23.97 170.49 -23.1 Q 169.68 -22.23 169.68 -20.38 L 169.68 -20.38 L 169.68 -19.71 Z M 206.42 0 L 206.42 -9.18 L 209.22 -9.18 L 209.22 -34.38 L 206.42 -34.38 L 206.42 -43.57 L 231 -43.57 Q 238.22 -43.57 242.03 -40.46 Q 245.84 -37.35 245.84 -30.41 L 245.84 -30.41 Q 245.84 -23.46 242.03 -20.36 Q 238.22 -17.25 231 -17.25 L 231 -17.25 L 224.9 -17.25 L 224.9 -9.18 L 230.27 -9.18 L 230.27 0 L 206.42 0 Z M 224.9 -25.2 L 226.8 -25.2 Q 230.05 -25.2 230.05 -28.78 L 230.05 -28.78 L 230.05 -30.8 Q 230.05 -32.65 229.24 -33.52 Q 228.42 -34.38 226.8 -34.38 L 226.8 -34.38 L 224.9 -34.38 L 224.9 -25.2 Z M 265.44 0.06 L 247.63 0.06 L 247.63 -9.18 L 250.1 -9.18 L 250.1 -34.38 L 247.63 -34.38 L 247.63 -43.57 L 262.98 -43.57 L 262.98 -9.18 L 265.44 -9.18 L 265.44 0.06 Z M 297.42 -9.18 L 299.88 -9.18 L 299.88 0 L 285.1 0 L 285.1 -3.81 Q 283.86 -2.02 281.65 -0.62 Q 279.44 0.78 276.25 0.78 L 276.25 0.78 Q 272.05 0.78 269.64 -1.46 Q 267.23 -3.7 267.23 -7.78 L 267.23 -7.78 Q 267.23 -18.37 285.21 -18.65 L 285.21 -18.65 Q 285.04 -20.55 283.75 -21.25 Q 282.46 -21.95 279.38 -21.95 L 279.38 -21.95 Q 276.86 -21.95 273.98 -21.42 Q 271.1 -20.89 268.69 -19.99 L 268.69 -19.99 L 268.69 -30.3 Q 271.66 -31.02 275.13 -31.47 Q 278.6 -31.92 281.9 -31.92 L 281.9 -31.92 Q 290.25 -31.92 293.83 -28.9 Q 297.42 -25.87 297.42 -19.54 L 297.42 -19.54 L 297.42 -9.18 Z M 285.1 -12.77 L 285.1 -13.1 Q 282.58 -13.1 281.2 -12.43 Q 279.83 -11.76 279.83 -10.19 L 279.83 -10.19 Q 279.83 -9.24 280.42 -8.65 Q 281.01 -8.06 282.07 -8.06 L 282.07 -8.06 Q 283.53 -8.06 284.31 -9.3 Q 285.1 -10.53 285.1 -12.77 L 285.1 -12.77 Z M 315.5 0.78 Q 309.57 0.78 306.57 -2.1 Q 303.58 -4.98 303.58 -11.82 L 303.58 -11.82 L 303.58 -21.95 L 301.11 -21.95 L 301.11 -31.14 Q 303.24 -31.14 304.3 -32.23 Q 305.37 -33.32 305.37 -35.22 L 305.37 -35.22 L 305.37 -37.74 L 317.24 -37.74 L 317.24 -31.14 L 324.8 -31.14 L 324.8 -21.95 L 317.24 -21.95 L 317.24 -12.77 Q 317.24 -10.92 318.05 -10.05 Q 318.86 -9.18 320.49 -9.18 L 320.49 -9.18 Q 322.62 -9.18 325.14 -9.69 L 325.14 -9.69 L 325.14 -0.9 Q 323.57 -0.28 320.91 0.25 Q 318.25 0.78 315.5 0.78 L 315.5 0.78 Z M 326.93 0 L 326.93 -9.18 L 329.39 -9.18 L 329.39 -21.95 L 326.93 -21.95 L 326.93 -31.14 L 329.5 -31.14 Q 329.5 -37.97 332.84 -41.16 Q 336.17 -44.35 342.55 -44.35 L 342.55 -44.35 Q 345.63 -44.35 348.07 -43.9 Q 350.5 -43.46 351.62 -42.9 L 351.62 -42.9 L 351.62 -34.1 Q 348.66 -34.38 346.14 -34.38 L 346.14 -34.38 Q 343.95 -34.38 343.11 -33.66 Q 342.27 -32.93 342.27 -31.14 L 342.27 -31.14 L 346.64 -31.14 L 346.64 -21.95 L 342.27 -21.95 L 342.27 -9.18 L 346.64 -9.18 L 346.64 0 L 326.93 0 Z M 365.12 0.78 Q 357.17 0.78 352.69 -3.39 Q 348.21 -7.56 348.21 -15.57 L 348.21 -15.57 Q 348.21 -23.58 352.69 -27.75 Q 357.17 -31.92 365.12 -31.92 L 365.12 -31.92 Q 373.18 -31.92 377.61 -27.69 Q 382.03 -23.46 382.03 -15.57 L 382.03 -15.57 Q 382.03 -7.56 377.55 -3.39 Q 373.07 0.78 365.12 0.78 L 365.12 0.78 Z M 365.12 -9.18 Q 366.74 -9.18 367.56 -10.05 Q 368.37 -10.92 368.37 -12.77 L 368.37 -12.77 L 368.37 -18.37 Q 368.37 -20.22 367.56 -21.08 Q 366.74 -21.95 365.12 -21.95 L 365.12 -21.95 Q 363.5 -21.95 362.68 -21.08 Q 361.87 -20.22 361.87 -18.37 L 361.87 -18.37 L 361.87 -12.77 Q 361.87 -10.92 362.68 -10.05 Q 363.5 -9.18 365.12 -9.18 L 365.12 -9.18 Z M 407.74 -31.92 Q 408.86 -31.92 409.86 -31.7 Q 410.87 -31.47 411.54 -31.14 L 411.54 -31.14 L 411.54 -20.44 Q 409.25 -21.39 406.62 -21.39 L 406.62 -21.39 Q 403.09 -21.39 401.18 -19.54 Q 399.28 -17.7 399.28 -14.06 L 399.28 -14.06 L 399.28 -9.18 L 404.32 -9.18 L 404.32 0 L 383.94 0 L 383.94 -9.18 L 386.4 -9.18 L 386.4 -21.95 L 383.94 -21.95 L 383.94 -31.14 L 399.28 -31.14 L 399.28 -27.05 Q 400.85 -29.4 402.86 -30.66 Q 404.88 -31.92 407.74 -31.92 L 407.74 -31.92 Z M 467.43 -9.18 L 469.9 -9.18 L 469.9 0 L 452.2 0 L 452.2 -9.18 L 454.55 -9.18 L 454.55 -18.37 Q 454.55 -20.22 453.77 -21.08 Q 452.98 -21.95 451.42 -21.95 L 451.42 -21.95 Q 448.06 -21.95 448.06 -18.37 L 448.06 -18.37 L 448.06 -9.18 L 450.41 -9.18 L 450.41 0 L 432.82 0 L 432.82 -9.18 L 435.18 -9.18 L 435.18 -18.37 Q 435.18 -20.22 434.39 -21.08 Q 433.61 -21.95 432.04 -21.95 L 432.04 -21.95 Q 428.68 -21.95 428.68 -18.37 L 428.68 -18.37 L 428.68 -9.18 L 431.03 -9.18 L 431.03 0 L 413.34 0 L 413.34 -9.18 L 415.8 -9.18 L 415.8 -21.95 L 413.34 -21.95 L 413.34 -31.14 L 428.68 -31.14 L 428.68 -26.77 Q 432.71 -31.92 438.76 -31.92 L 438.76 -31.92 Q 442.18 -31.92 444.33 -30.32 Q 446.49 -28.73 447.38 -25.82 L 447.38 -25.82 Q 449.4 -28.73 452 -30.3 Q 454.61 -31.86 458.14 -31.86 L 458.14 -31.86 Q 462.78 -31.86 465.11 -28.95 Q 467.43 -26.04 467.43 -20.94 L 467.43 -20.94 L 467.43 -9.18 Z" stroke-linecap="round" />
</g>
<g transform="matrix(1.9692780337941629 0 0 1.9692780337941629 640.0153846153845 444.26141207521596)" id="tagline-532966cd-a8b6-4506-85d3-75293f7d7bb0-logo-path"  >
<path style="stroke: none; stroke-width: 0; stroke-dasharray: none; stroke-linecap: butt; stroke-dashoffset: 0; stroke-linejoin: miter; stroke-miterlimit: 4; fill: rgb(246,200,62); fill-rule: nonzero; opacity: 1;"  paint-order="stroke"  transform=" translate(-54.294999999999995, 36.955)" d="M 106.69 -73.91 L 106.69 -58.33 L 101.94 -58.33 L 101.94 -15.58 L 106.69 -15.58 L 106.69 0 L 70.78 0 L 70.78 -15.58 L 75.34 -15.58 L 75.34 -48.83 L 59.19 0 L 45.13 0 L 28.5 -48.36 L 28.5 -15.58 L 33.06 -15.58 L 33.06 0 L 1.9 0 L 1.9 -15.58 L 6.65 -15.58 L 6.65 -58.33 L 1.9 -58.33 L 1.9 -73.91 L 45.41 -73.91 L 55.29 -44.27 L 64.79 -73.91 L 106.69 -73.91 Z" stroke-linecap="round" />
</g>
<g transform="matrix(1.9692780337941629 0 0 1.9692780337941629 640.2398823112371 881.3224070917144)" id="tagline-eb02475a-f93a-4173-9ecf-e8a655372b7f-logo-path"  >
<path style="stroke: none; stroke-width: 0; stroke-dasharray: none; stroke-linecap: butt; stroke-dashoffset: 0; stroke-linejoin: miter; stroke-miterlimit: 4; fill: rgb(255,255,255); fill-rule: nonzero; opacity: 1;"  paint-order="stroke"  transform=" translate(-317.71999999999997, 10.294999999999998)" d="M 22.65 -23.33 L 22.65 -29.56 L 35.11 -29.56 L 35.11 -23.33 L 33.21 -23.33 L 33.21 0 L 22.53 0 L 11.4 -17.14 L 11.4 -6.23 L 13.22 -6.23 L 13.22 0 L 0.76 0 L 0.76 -6.23 L 2.66 -6.23 L 2.66 -23.33 L 0.76 -23.33 L 0.76 -29.56 L 14.48 -29.56 L 24.47 -14.33 L 24.47 -23.33 L 22.65 -23.33 Z M 47.8 0.53 Q 42.41 0.53 39.37 -2.3 Q 36.33 -5.13 36.33 -10.56 L 36.33 -10.56 Q 36.33 -16 39.37 -18.83 Q 42.41 -21.66 47.8 -21.66 L 47.8 -21.66 Q 53.16 -21.66 55.54 -18.87 Q 57.91 -16.07 57.91 -11.93 L 57.91 -11.93 L 57.91 -9.2 L 45.6 -9.2 L 45.6 -8.97 Q 45.6 -7.56 46.44 -6.9 Q 47.27 -6.23 49.21 -6.23 L 49.21 -6.23 Q 51.53 -6.23 53.62 -6.57 Q 55.71 -6.92 57.27 -7.45 L 57.27 -7.45 L 57.27 -1.37 Q 55.94 -0.65 53.37 -0.06 Q 50.81 0.53 47.8 0.53 L 47.8 0.53 Z M 45.6 -13.38 L 50.01 -13.38 L 50.01 -13.83 Q 50.01 -15.12 49.46 -15.69 Q 48.91 -16.26 47.8 -16.26 L 47.8 -16.26 Q 46.7 -16.26 46.15 -15.67 Q 45.6 -15.09 45.6 -13.83 L 45.6 -13.83 L 45.6 -13.38 Z M 75.96 -10.87 L 80.86 -6.23 L 82.08 -6.23 L 82.08 0 L 70.22 0 L 70.22 -6.23 L 71.29 -6.23 L 69.81 -8.47 L 69.43 -8.47 L 67.94 -6.23 L 69.01 -6.23 L 69.01 0 L 58.82 0 L 58.82 -6.23 L 60.42 -6.23 L 65.02 -10.34 L 60.19 -14.9 L 58.98 -14.9 L 58.98 -21.13 L 70.83 -21.13 L 70.83 -14.9 L 69.77 -14.9 L 71.25 -12.69 L 71.63 -12.69 L 73.11 -14.9 L 72.05 -14.9 L 72.05 -21.13 L 81.93 -21.13 L 81.93 -14.9 L 80.33 -14.9 L 75.96 -10.87 Z M 92.61 0.53 Q 88.58 0.53 86.55 -1.43 Q 84.51 -3.38 84.51 -8.02 L 84.51 -8.02 L 84.51 -14.9 L 82.84 -14.9 L 82.84 -21.13 Q 84.28 -21.13 85.01 -21.87 Q 85.73 -22.61 85.73 -23.9 L 85.73 -23.9 L 85.73 -25.61 L 93.78 -25.61 L 93.78 -21.13 L 98.91 -21.13 L 98.91 -14.9 L 93.78 -14.9 L 93.78 -8.66 Q 93.78 -7.41 94.34 -6.82 Q 94.89 -6.23 95.99 -6.23 L 95.99 -6.23 Q 97.43 -6.23 99.14 -6.57 L 99.14 -6.57 L 99.14 -0.61 Q 98.08 -0.19 96.27 0.17 Q 94.47 0.53 92.61 0.53 L 92.61 0.53 Z M 107.12 0 L 101.19 0 L 101.19 -6.23 L 107.12 -6.23 L 107.12 0 Z M 119.02 -23.22 L 111.26 -23.22 L 111.26 -29.56 L 119.02 -29.56 L 119.02 -23.22 Z M 111 8.97 Q 109.44 8.97 107.79 8.7 Q 106.13 8.44 104.99 8.13 L 104.99 8.13 L 104.99 1.94 Q 106.78 2.2 108.19 2.2 L 108.19 2.2 Q 111.11 2.2 111.11 -0.53 L 111.11 -0.53 L 111.11 -14.9 L 108.57 -14.9 L 108.57 -21.13 L 119.85 -21.13 L 119.85 -1.29 Q 119.85 3.91 117.65 6.44 Q 115.44 8.97 111 8.97 L 111 8.97 Z M 130.76 0.53 Q 125.97 0.53 121.52 -0.99 L 121.52 -0.99 L 121.52 -6.61 L 127.68 -6.61 L 127.68 -6.23 Q 127.68 -4.41 130 -4.41 L 130 -4.41 Q 132.05 -4.41 132.05 -5.81 L 132.05 -5.81 Q 132.05 -6.57 131.46 -6.95 Q 130.87 -7.33 129.39 -7.6 L 129.39 -7.6 L 127.49 -7.94 Q 121.52 -9.01 121.52 -14.71 L 121.52 -14.71 Q 121.52 -18.01 124.03 -19.84 Q 126.54 -21.66 130.8 -21.66 L 130.8 -21.66 Q 135.55 -21.66 138.81 -20.06 L 138.81 -20.06 L 138.81 -14.78 L 133.04 -14.78 L 133.04 -15.16 Q 133.04 -15.92 132.53 -16.32 Q 132.01 -16.72 131.02 -16.72 L 131.02 -16.72 Q 129.12 -16.72 129.12 -15.5 L 129.12 -15.5 Q 129.12 -14.86 129.66 -14.52 Q 130.19 -14.17 131.59 -13.87 L 131.59 -13.87 L 133.76 -13.45 Q 137.14 -12.81 138.59 -11.06 Q 140.03 -9.31 140.03 -6.57 L 140.03 -6.57 Q 140.03 -3.12 137.62 -1.29 Q 135.2 0.53 130.76 0.53 L 130.76 0.53 Z M 173.13 -6.23 L 174.8 -6.23 L 174.8 0 L 164.77 0 L 164.77 -2.58 Q 163.93 -1.37 162.43 -0.42 Q 160.93 0.53 158.76 0.53 L 158.76 0.53 Q 155.91 0.53 154.28 -0.99 Q 152.65 -2.51 152.65 -5.28 L 152.65 -5.28 Q 152.65 -12.46 164.84 -12.65 L 164.84 -12.65 Q 164.73 -13.95 163.86 -14.42 Q 162.98 -14.9 160.89 -14.9 L 160.89 -14.9 Q 159.18 -14.9 157.23 -14.54 Q 155.27 -14.17 153.63 -13.57 L 153.63 -13.57 L 153.63 -20.56 Q 155.65 -21.05 158 -21.36 Q 160.36 -21.66 162.6 -21.66 L 162.6 -21.66 Q 168.26 -21.66 170.7 -19.61 Q 173.13 -17.56 173.13 -13.26 L 173.13 -13.26 L 173.13 -6.23 Z M 164.77 -8.66 L 164.77 -8.89 Q 163.06 -8.89 162.13 -8.44 Q 161.2 -7.98 161.2 -6.92 L 161.2 -6.92 Q 161.2 -6.27 161.6 -5.87 Q 161.99 -5.47 162.72 -5.47 L 162.72 -5.47 Q 163.7 -5.47 164.24 -6.31 Q 164.77 -7.14 164.77 -8.66 L 164.77 -8.66 Z M 199.58 -6.23 L 201.25 -6.23 L 201.25 0 L 189.24 0 L 189.24 -6.23 L 190.84 -6.23 L 190.84 -12.46 Q 190.84 -13.72 190.3 -14.31 Q 189.77 -14.9 188.71 -14.9 L 188.71 -14.9 Q 186.43 -14.9 186.43 -12.46 L 186.43 -12.46 L 186.43 -6.23 L 188.02 -6.23 L 188.02 0 L 176.02 0 L 176.02 -6.23 L 177.69 -6.23 L 177.69 -14.9 L 176.02 -14.9 L 176.02 -21.13 L 186.43 -21.13 L 186.43 -18.16 Q 189.16 -21.66 193.27 -21.66 L 193.27 -21.66 Q 196.42 -21.66 198 -19.68 Q 199.58 -17.71 199.58 -14.25 L 199.58 -14.25 L 199.58 -6.23 Z M 209.95 0.53 Q 206.07 0.53 204.12 -2.36 Q 202.16 -5.24 202.16 -10.56 L 202.16 -10.56 Q 202.16 -15.88 204.12 -18.77 Q 206.07 -21.66 209.95 -21.66 L 209.95 -21.66 Q 211.89 -21.66 213.39 -20.71 Q 214.89 -19.76 215.84 -18.54 L 215.84 -18.54 L 215.84 -23.33 L 213.6 -23.33 L 213.6 -29.56 L 224.58 -29.56 L 224.58 -6.23 L 226.25 -6.23 L 226.25 0 L 215.84 0 L 215.84 -2.58 Q 214.89 -1.37 213.39 -0.42 Q 211.89 0.53 209.95 0.53 L 209.95 0.53 Z M 213.64 -6.23 Q 214.74 -6.23 215.29 -6.82 Q 215.84 -7.41 215.84 -8.66 L 215.84 -8.66 L 215.84 -12.46 Q 215.84 -13.72 215.29 -14.31 Q 214.74 -14.9 213.64 -14.9 L 213.64 -14.9 Q 212.53 -14.9 211.98 -14.31 Q 211.43 -13.72 211.43 -12.46 L 211.43 -12.46 L 211.43 -8.66 Q 211.43 -7.41 211.98 -6.82 Q 212.53 -6.23 213.64 -6.23 L 213.64 -6.23 Z M 267.29 -29.56 L 267.29 -20.37 L 260.76 -20.37 L 260.76 -23.33 L 258.32 -23.33 L 258.32 -6.23 L 260.98 -6.23 L 260.98 0 L 245.02 0 L 245.02 -6.23 L 247.68 -6.23 L 247.68 -23.33 L 245.25 -23.33 L 245.25 -20.37 L 238.72 -20.37 L 238.72 -29.56 L 267.29 -29.56 Z M 288.38 -6.23 L 290.05 -6.23 L 290.05 0 L 280.02 0 L 280.02 -2.58 Q 279.19 -1.37 277.69 -0.42 Q 276.18 0.53 274.02 0.53 L 274.02 0.53 Q 271.17 0.53 269.53 -0.99 Q 267.9 -2.51 267.9 -5.28 L 267.9 -5.28 Q 267.9 -12.46 280.1 -12.65 L 280.1 -12.65 Q 279.98 -13.95 279.11 -14.42 Q 278.24 -14.9 276.15 -14.9 L 276.15 -14.9 Q 274.44 -14.9 272.48 -14.54 Q 270.52 -14.17 268.89 -13.57 L 268.89 -13.57 L 268.89 -20.56 Q 270.9 -21.05 273.26 -21.36 Q 275.61 -21.66 277.86 -21.66 L 277.86 -21.66 Q 283.52 -21.66 285.95 -19.61 Q 288.38 -17.56 288.38 -13.26 L 288.38 -13.26 L 288.38 -6.23 Z M 280.02 -8.66 L 280.02 -8.89 Q 278.31 -8.89 277.38 -8.44 Q 276.45 -7.98 276.45 -6.92 L 276.45 -6.92 Q 276.45 -6.27 276.85 -5.87 Q 277.25 -5.47 277.97 -5.47 L 277.97 -5.47 Q 278.96 -5.47 279.49 -6.31 Q 280.02 -7.14 280.02 -8.66 L 280.02 -8.66 Z M 300.85 -23.22 L 293.09 -23.22 L 293.09 -29.56 L 300.85 -29.56 L 300.85 -23.22 Z M 303.35 0 L 291.27 0 L 291.27 -6.23 L 292.94 -6.23 L 292.94 -14.9 L 291.27 -14.9 L 291.27 -21.13 L 301.68 -21.13 L 301.68 -6.23 L 303.35 -6.23 L 303.35 0 Z M 316.5 0.04 L 304.42 0.04 L 304.42 -6.23 L 306.09 -6.23 L 306.09 -23.33 L 304.42 -23.33 L 304.42 -29.56 L 314.83 -29.56 L 314.83 -6.23 L 316.5 -6.23 L 316.5 0.04 Z M 332.77 0 L 324.03 0 L 319.01 -14.9 L 317.41 -14.9 L 317.41 -21.13 L 329.16 -21.13 L 329.16 -14.9 L 327.56 -14.9 L 328.93 -8.97 L 329.31 -8.97 L 332.08 -21.13 L 339.07 -21.13 L 341.85 -8.97 L 342.23 -8.97 L 343.56 -14.9 L 341.96 -14.9 L 341.96 -21.13 L 352.98 -21.13 L 352.98 -14.9 L 351.39 -14.9 L 346.56 0 L 337.33 0 L 335.24 -10.56 L 334.86 -10.56 L 332.77 0 Z M 363.62 -23.22 L 355.87 -23.22 L 355.87 -29.56 L 363.62 -29.56 L 363.62 -23.22 Z M 366.13 0 L 354.05 0 L 354.05 -6.23 L 355.72 -6.23 L 355.72 -14.9 L 354.05 -14.9 L 354.05 -21.13 L 364.46 -21.13 L 364.46 -6.23 L 366.13 -6.23 L 366.13 0 Z M 390.75 -6.23 L 392.43 -6.23 L 392.43 0 L 380.42 0 L 380.42 -6.23 L 382.01 -6.23 L 382.01 -12.46 Q 382.01 -13.72 381.48 -14.31 Q 380.95 -14.9 379.89 -14.9 L 379.89 -14.9 Q 377.61 -14.9 377.61 -12.46 L 377.61 -12.46 L 377.61 -6.23 L 379.2 -6.23 L 379.2 0 L 367.19 0 L 367.19 -6.23 L 368.87 -6.23 L 368.87 -14.9 L 367.19 -14.9 L 367.19 -21.13 L 377.61 -21.13 L 377.61 -18.16 Q 380.34 -21.66 384.45 -21.66 L 384.45 -21.66 Q 387.6 -21.66 389.18 -19.68 Q 390.75 -17.71 390.75 -14.25 L 390.75 -14.25 L 390.75 -6.23 Z M 401.13 0.53 Q 397.25 0.53 395.3 -2.36 Q 393.34 -5.24 393.34 -10.56 L 393.34 -10.56 Q 393.34 -15.88 395.3 -18.77 Q 397.25 -21.66 401.13 -21.66 L 401.13 -21.66 Q 403.07 -21.66 404.57 -20.71 Q 406.07 -19.76 407.02 -18.54 L 407.02 -18.54 L 407.02 -23.33 L 404.78 -23.33 L 404.78 -29.56 L 415.76 -29.56 L 415.76 -6.23 L 417.43 -6.23 L 417.43 0 L 407.02 0 L 407.02 -2.58 Q 406.07 -1.37 404.57 -0.42 Q 403.07 0.53 401.13 0.53 L 401.13 0.53 Z M 404.81 -6.23 Q 405.92 -6.23 406.47 -6.82 Q 407.02 -7.41 407.02 -8.66 L 407.02 -8.66 L 407.02 -12.46 Q 407.02 -13.72 406.47 -14.31 Q 405.92 -14.9 404.81 -14.9 L 404.81 -14.9 Q 403.71 -14.9 403.16 -14.31 Q 402.61 -13.72 402.61 -12.46 L 402.61 -12.46 L 402.61 -8.66 Q 402.61 -7.41 403.16 -6.82 Q 403.71 -6.23 404.81 -6.23 L 404.81 -6.23 Z M 430.01 0.53 Q 424.57 0.53 421.53 -2.3 Q 418.49 -5.13 418.49 -10.56 L 418.49 -10.56 Q 418.49 -16 421.53 -18.83 Q 424.57 -21.66 429.97 -21.66 L 429.97 -21.66 Q 432.59 -21.66 434.99 -20.94 Q 437.38 -20.22 438.71 -19.3 L 438.71 -19.3 L 438.71 -11.78 L 432.17 -11.78 L 432.17 -12.46 Q 432.17 -13.72 431.64 -14.31 Q 431.11 -14.9 429.97 -14.9 L 429.97 -14.9 Q 427.77 -14.9 427.77 -12.46 L 427.77 -12.46 L 427.77 -9.2 Q 427.77 -6.23 431.15 -6.23 L 431.15 -6.23 Q 434.3 -6.23 438.48 -6.92 L 438.48 -6.92 L 438.48 -0.95 Q 437.19 -0.38 434.85 0.08 Q 432.52 0.53 430.01 0.53 L 430.01 0.53 Z M 449.24 0.53 Q 444.45 0.53 440 -0.99 L 440 -0.99 L 440 -6.61 L 446.16 -6.61 L 446.16 -6.23 Q 446.16 -4.41 448.48 -4.41 L 448.48 -4.41 Q 450.53 -4.41 450.53 -5.81 L 450.53 -5.81 Q 450.53 -6.57 449.94 -6.95 Q 449.35 -7.33 447.87 -7.6 L 447.87 -7.6 L 445.97 -7.94 Q 440 -9.01 440 -14.71 L 440 -14.71 Q 440 -18.01 442.51 -19.84 Q 445.02 -21.66 449.27 -21.66 L 449.27 -21.66 Q 454.02 -21.66 457.29 -20.06 L 457.29 -20.06 L 457.29 -14.78 L 451.52 -14.78 L 451.52 -15.16 Q 451.52 -15.92 451 -16.32 Q 450.49 -16.72 449.5 -16.72 L 449.5 -16.72 Q 447.6 -16.72 447.6 -15.5 L 447.6 -15.5 Q 447.6 -14.86 448.13 -14.52 Q 448.67 -14.17 450.07 -13.87 L 450.07 -13.87 L 452.24 -13.45 Q 455.62 -12.81 457.06 -11.06 Q 458.51 -9.31 458.51 -6.57 L 458.51 -6.57 Q 458.51 -3.12 456.1 -1.29 Q 453.68 0.53 449.24 0.53 L 449.24 0.53 Z M 468.96 0.53 Q 464.17 0.53 459.72 -0.99 L 459.72 -0.99 L 459.72 -6.61 L 465.88 -6.61 L 465.88 -6.23 Q 465.88 -4.41 468.2 -4.41 L 468.2 -4.41 Q 470.25 -4.41 470.25 -5.81 L 470.25 -5.81 Q 470.25 -6.57 469.66 -6.95 Q 469.07 -7.33 467.59 -7.6 L 467.59 -7.6 L 465.69 -7.94 Q 459.72 -9.01 459.72 -14.71 L 459.72 -14.71 Q 459.72 -18.01 462.23 -19.84 Q 464.74 -21.66 469 -21.66 L 469 -21.66 Q 473.75 -21.66 477.01 -20.06 L 477.01 -20.06 L 477.01 -14.78 L 471.24 -14.78 L 471.24 -15.16 Q 471.24 -15.92 470.73 -16.32 Q 470.21 -16.72 469.22 -16.72 L 469.22 -16.72 Q 467.32 -16.72 467.32 -15.5 L 467.32 -15.5 Q 467.32 -14.86 467.86 -14.52 Q 468.39 -14.17 469.79 -13.87 L 469.79 -13.87 L 471.96 -13.45 Q 475.34 -12.81 476.79 -11.06 Q 478.23 -9.31 478.23 -6.57 L 478.23 -6.57 Q 478.23 -3.12 475.82 -1.29 Q 473.4 0.53 468.96 0.53 L 468.96 0.53 Z M 490.92 0 L 490.92 -6.23 L 492.82 -6.23 L 492.82 -23.33 L 490.92 -23.33 L 490.92 -29.56 L 507.6 -29.56 Q 512.51 -29.56 515.09 -27.45 Q 517.67 -25.35 517.67 -20.63 L 517.67 -20.63 Q 517.67 -15.92 515.09 -13.81 Q 512.51 -11.7 507.6 -11.7 L 507.6 -11.7 L 503.46 -11.7 L 503.46 -6.23 L 507.11 -6.23 L 507.11 0 L 490.92 0 Z M 503.46 -17.1 L 504.75 -17.1 Q 506.96 -17.1 506.96 -19.53 L 506.96 -19.53 L 506.96 -20.9 Q 506.96 -22.15 506.41 -22.74 Q 505.86 -23.33 504.75 -23.33 L 504.75 -23.33 L 503.46 -23.33 L 503.46 -17.1 Z M 535.12 -21.66 Q 535.88 -21.66 536.56 -21.51 Q 537.24 -21.36 537.7 -21.13 L 537.7 -21.13 L 537.7 -13.87 Q 536.14 -14.52 534.36 -14.52 L 534.36 -14.52 Q 531.96 -14.52 530.67 -13.26 Q 529.38 -12.01 529.38 -9.54 L 529.38 -9.54 L 529.38 -6.23 L 532.8 -6.23 L 532.8 0 L 518.97 0 L 518.97 -6.23 L 520.64 -6.23 L 520.64 -14.9 L 518.97 -14.9 L 518.97 -21.13 L 529.38 -21.13 L 529.38 -18.35 Q 530.44 -19.95 531.81 -20.8 Q 533.18 -21.66 535.12 -21.66 L 535.12 -21.66 Z M 550.24 0.53 Q 544.84 0.53 541.8 -2.3 Q 538.76 -5.13 538.76 -10.56 L 538.76 -10.56 Q 538.76 -16 541.8 -18.83 Q 544.84 -21.66 550.24 -21.66 L 550.24 -21.66 Q 555.71 -21.66 558.71 -18.79 Q 561.72 -15.92 561.72 -10.56 L 561.72 -10.56 Q 561.72 -5.13 558.68 -2.3 Q 555.64 0.53 550.24 0.53 L 550.24 0.53 Z M 550.24 -6.23 Q 551.34 -6.23 551.89 -6.82 Q 552.44 -7.41 552.44 -8.66 L 552.44 -8.66 L 552.44 -12.46 Q 552.44 -13.72 551.89 -14.31 Q 551.34 -14.9 550.24 -14.9 L 550.24 -14.9 Q 549.14 -14.9 548.59 -14.31 Q 548.04 -13.72 548.04 -12.46 L 548.04 -12.46 L 548.04 -8.66 Q 548.04 -7.41 548.59 -6.82 Q 549.14 -6.23 550.24 -6.23 L 550.24 -6.23 Z M 572.32 -23.22 L 564.57 -23.22 L 564.57 -29.56 L 572.32 -29.56 L 572.32 -23.22 Z M 564.3 8.97 Q 562.74 8.97 561.09 8.7 Q 559.44 8.44 558.3 8.13 L 558.3 8.13 L 558.3 1.94 Q 560.08 2.2 561.49 2.2 L 561.49 2.2 Q 564.41 2.2 564.41 -0.53 L 564.41 -0.53 L 564.41 -14.9 L 561.87 -14.9 L 561.87 -21.13 L 573.15 -21.13 L 573.15 -1.29 Q 573.15 3.91 570.95 6.44 Q 568.75 8.97 564.3 8.97 L 564.3 8.97 Z M 586.15 0.53 Q 580.75 0.53 577.71 -2.3 Q 574.67 -5.13 574.67 -10.56 L 574.67 -10.56 Q 574.67 -16 577.71 -18.83 Q 580.75 -21.66 586.15 -21.66 L 586.15 -21.66 Q 591.51 -21.66 593.88 -18.87 Q 596.26 -16.07 596.26 -11.93 L 596.26 -11.93 L 596.26 -9.2 L 583.95 -9.2 L 583.95 -8.97 Q 583.95 -7.56 584.78 -6.9 Q 585.62 -6.23 587.56 -6.23 L 587.56 -6.23 Q 589.87 -6.23 591.96 -6.57 Q 594.05 -6.92 595.61 -7.45 L 595.61 -7.45 L 595.61 -1.37 Q 594.28 -0.65 591.72 -0.06 Q 589.15 0.53 586.15 0.53 L 586.15 0.53 Z M 583.95 -13.38 L 588.35 -13.38 L 588.35 -13.83 Q 588.35 -15.12 587.8 -15.69 Q 587.25 -16.26 586.15 -16.26 L 586.15 -16.26 Q 585.05 -16.26 584.5 -15.67 Q 583.95 -15.09 583.95 -13.83 L 583.95 -13.83 L 583.95 -13.38 Z M 608.76 0.53 Q 603.33 0.53 600.29 -2.3 Q 597.25 -5.13 597.25 -10.56 L 597.25 -10.56 Q 597.25 -16 600.29 -18.83 Q 603.33 -21.66 608.72 -21.66 L 608.72 -21.66 Q 611.34 -21.66 613.74 -20.94 Q 616.13 -20.22 617.46 -19.3 L 617.46 -19.3 L 617.46 -11.78 L 610.93 -11.78 L 610.93 -12.46 Q 610.93 -13.72 610.39 -14.31 Q 609.86 -14.9 608.72 -14.9 L 608.72 -14.9 Q 606.52 -14.9 606.52 -12.46 L 606.52 -12.46 L 606.52 -9.2 Q 606.52 -6.23 609.9 -6.23 L 609.9 -6.23 Q 613.05 -6.23 617.23 -6.92 L 617.23 -6.92 L 617.23 -0.95 Q 615.94 -0.38 613.6 0.08 Q 611.27 0.53 608.76 0.53 L 608.76 0.53 Z M 628.14 0.53 Q 624.11 0.53 622.08 -1.43 Q 620.05 -3.38 620.05 -8.02 L 620.05 -8.02 L 620.05 -14.9 L 618.37 -14.9 L 618.37 -21.13 Q 619.82 -21.13 620.54 -21.87 Q 621.26 -22.61 621.26 -23.9 L 621.26 -23.9 L 621.26 -25.61 L 629.32 -25.61 L 629.32 -21.13 L 634.45 -21.13 L 634.45 -14.9 L 629.32 -14.9 L 629.32 -8.66 Q 629.32 -7.41 629.87 -6.82 Q 630.42 -6.23 631.52 -6.23 L 631.52 -6.23 Q 632.97 -6.23 634.68 -6.57 L 634.68 -6.57 L 634.68 -0.61 Q 633.61 -0.19 631.81 0.17 Q 630 0.53 628.14 0.53 L 628.14 0.53 Z" stroke-linecap="round" />
</g>
</svg>