<?xml version="1.0" encoding="UTF-8" standalone="no" ?>
<!DOCTYPE svg PUBLIC "-//W3C//DTD SVG 1.1//EN" "http://www.w3.org/Graphics/SVG/1.1/DTD/svg11.dtd">
<svg xmlns="http://www.w3.org/2000/svg" xmlns:xlink="http://www.w3.org/1999/xlink" version="1.1" width="1280" height="1024" viewBox="0 0 1280 1024" xml:space="preserve">
<desc>Created with Fabric.js 3.6.3</desc>
<defs>
</defs>
<g transform="matrix(1.9692780337941629 0 0 1.9692780337941629 640.0153846153846 512.012312418764)" id="background-logo"  >
<rect style="stroke: none; stroke-width: 1; stroke-dasharray: none; stroke-linecap: butt; stroke-dashoffset: 0; stroke-linejoin: miter; stroke-miterlimit: 4; fill: rgb(6,32,42); fill-rule: nonzero; opacity: 1;"  paint-order="stroke"  x="-325" y="-260" rx="0" ry="0" width="650" height="520" />
</g>
<g transform="matrix(1.9692780337941629 0 0 1.9692780337941629 640.0153846153846 375.08365072111144)" id="logo-logo"  >
<g style=""  paint-order="stroke"   >
		<g transform="matrix(0.25612101848503943 0 0 0.26782728732957767 -80.70349646837084 -45.8240466304936)"  >
<g style=""  paint-order="stroke"   >
		<g transform="matrix(1 0 0 1 0 0)"  >
<path style="stroke: none; stroke-width: 1; stroke-dasharray: none; stroke-linecap: butt; stroke-dashoffset: 0; stroke-linejoin: miter; stroke-miterlimit: 4; fill: rgb(246,200,62); fill-rule: nonzero; opacity: 1;"  paint-order="stroke"  transform=" translate(-100, -100)" d="M 200 100 A 100 100 0 0 1 100 200 A 100 100 0 0 1 0 100 A 100 100 0 0 1 100 0 A 100 100 0 0 1 200 100 Z" stroke-linecap="round" />
</g>
</g>
</g>
		<g transform="matrix(0.5678265735007502 0 0 0.3895368946219588 -37.15817324361518 -33.65308590125545)"  >
<g style=""  paint-order="stroke"   >
		<g transform="matrix(1 0 0 1 0 0)"  >
<path style="stroke: none; stroke-width: 1; stroke-dasharray: none; stroke-linecap: butt; stroke-dashoffset: 0; stroke-linejoin: miter; stroke-miterlimit: 4; fill: rgb(246,200,62); fill-rule: nonzero; opacity: 1;"  paint-order="stroke"  transform=" translate(-100, -100)" d="M 200 100 A 100 100 0 0 1 100 200 A 100 100 0 0 1 0 100 A 100 100 0 0 1 100 0 A 100 100 0 0 1 200 100 Z" stroke-linecap="round" />
</g>
</g>
</g>
		<g transform="matrix(0.3602821688394327 0 0 0.3602821688394327 -12.13338462962389 -82.10460691448276)"  >
<g style=""  paint-order="stroke"   >
		<g transform="matrix(1 0 0 1 0 0)"  >
<path style="stroke: none; stroke-width: 1; stroke-dasharray: none; stroke-linecap: butt; stroke-dashoffset: 0; stroke-linejoin: miter; stroke-miterlimit: 4; fill: rgb(246,200,62); fill-rule: nonzero; opacity: 1;"  paint-order="stroke"  transform=" translate(-100, -100)" d="M 200 100 A 100 100 0 0 1 100 200 A 100 100 0 0 1 0 100 A 100 100 0 0 1 100 0 A 100 100 0 0 1 200 100 Z" stroke-linecap="round" />
</g>
</g>
</g>
		<g transform="matrix(0.4253502698198092 0 0 0.4253502698198092 52.0011536043275 -53.887549598771244)"  >
<g style=""  paint-order="stroke"   >
		<g transform="matrix(1 0 0 1 0 0)"  >
<path style="stroke: none; stroke-width: 1; stroke-dasharray: none; stroke-linecap: butt; stroke-dashoffset: 0; stroke-linejoin: miter; stroke-miterlimit: 4; fill: rgb(246,200,62); fill-rule: nonzero; opacity: 1;"  paint-order="stroke"  transform=" translate(-100, -100)" d="M 200 100 A 100 100 0 0 1 100 200 A 100 100 0 0 1 0 100 A 100 100 0 0 1 100 0 A 100 100 0 0 1 200 100 Z" stroke-linecap="round" />
</g>
</g>
</g>
		<g transform="matrix(0.23775654798774465 0 0 0.21491006676767271 84.7477110182744 -51.11576868668408)"  >
<g style=""  paint-order="stroke"   >
		<g transform="matrix(1 0 0 1 0 0)"  >
<path style="stroke: none; stroke-width: 1; stroke-dasharray: none; stroke-linecap: butt; stroke-dashoffset: 0; stroke-linejoin: miter; stroke-miterlimit: 4; fill: rgb(246,200,62); fill-rule: nonzero; opacity: 1;"  paint-order="stroke"  transform=" translate(-100, -100)" d="M 200 100 A 100 100 0 0 1 100 200 A 100 100 0 0 1 0 100 A 100 100 0 0 1 100 0 A 100 100 0 0 1 200 100 Z" stroke-linecap="round" />
</g>
</g>
</g>
		<g transform="matrix(0.16782062183404223 0 0 0.16782062183404223 -77.15876841028557 -72.60677536345133)"  >
<g style=""  paint-order="stroke"   >
		<g transform="matrix(1 0 0 1 0 0)"  >
<path style="stroke: none; stroke-width: 1; stroke-dasharray: none; stroke-linecap: butt; stroke-dashoffset: 0; stroke-linejoin: miter; stroke-miterlimit: 4; fill: rgb(255,224,111); fill-rule: nonzero; opacity: 1;"  paint-order="stroke"  transform=" translate(-100, -100)" d="M 200 100 A 100 100 0 0 1 100 200 A 100 100 0 0 1 0 100 A 100 100 0 0 1 100 0 A 100 100 0 0 1 200 100 Z" stroke-linecap="round" />
</g>
</g>
</g>
		<g transform="matrix(0.16782062183404223 0 0 0.16782062183404223 58.29990570152006 -91.13085452456167)"  >
<g style=""  paint-order="stroke"   >
		<g transform="matrix(1 0 0 1 0 0)"  >
<path style="stroke: none; stroke-width: 1; stroke-dasharray: none; stroke-linecap: butt; stroke-dashoffset: 0; stroke-linejoin: miter; stroke-miterlimit: 4; fill: rgb(255,224,111); fill-rule: nonzero; opacity: 1;"  paint-order="stroke"  transform=" translate(-100, -100)" d="M 200 100 A 100 100 0 0 1 100 200 A 100 100 0 0 1 0 100 A 100 100 0 0 1 100 0 A 100 100 0 0 1 200 100 Z" stroke-linecap="round" />
</g>
</g>
</g>
		<g transform="matrix(0.15180114870514846 0 0 0.15180114870514846 -70.2715094903817 -92.73280183745106)"  >
<g style=""  paint-order="stroke"   >
		<g transform="matrix(1 0 0 1 0 0)"  >
<path style="stroke: none; stroke-width: 1; stroke-dasharray: none; stroke-linecap: butt; stroke-dashoffset: 0; stroke-linejoin: miter; stroke-miterlimit: 4; fill: rgb(255,224,111); fill-rule: nonzero; opacity: 1;"  paint-order="stroke"  transform=" translate(-100, -100)" d="M 200 100 A 100 100 0 0 1 100 200 A 100 100 0 0 1 0 100 A 100 100 0 0 1 100 0 A 100 100 0 0 1 200 100 Z" stroke-linecap="round" />
</g>
</g>
</g>
		<g transform="matrix(0.16782062183404223 0 0 0.16782062183404223 31.690847049993806 -96.42257658075215)"  >
<g style=""  paint-order="stroke"   >
		<g transform="matrix(1 0 0 1 0 0)"  >
<path style="stroke: none; stroke-width: 1; stroke-dasharray: none; stroke-linecap: butt; stroke-dashoffset: 0; stroke-linejoin: miter; stroke-miterlimit: 4; fill: rgb(255,224,111); fill-rule: nonzero; opacity: 1;"  paint-order="stroke"  transform=" translate(-100, -100)" d="M 200 100 A 100 100 0 0 1 100 200 A 100 100 0 0 1 0 100 A 100 100 0 0 1 100 0 A 100 100 0 0 1 200 100 Z" stroke-linecap="round" />
</g>
</g>
</g>
		<g transform="matrix(0.16782062183404223 0 0 0.16782062183404223 14.908784866589599 -46.07639003053947)"  >
<g style=""  paint-order="stroke"   >
		<g transform="matrix(1 0 0 1 0 0)"  >
<path style="stroke: none; stroke-width: 1; stroke-dasharray: none; stroke-linecap: butt; stroke-dashoffset: 0; stroke-linejoin: miter; stroke-miterlimit: 4; fill: rgb(255,224,111); fill-rule: nonzero; opacity: 1;"  paint-order="stroke"  transform=" translate(-100, -100)" d="M 200 100 A 100 100 0 0 1 100 200 A 100 100 0 0 1 0 100 A 100 100 0 0 1 100 0 A 100 100 0 0 1 200 100 Z" stroke-linecap="round" />
</g>
</g>
</g>
		<g transform="matrix(0.16782062183404223 0 0 0.16782062183404223 4.648677553780317 -62.858452213943735)"  >
<g style=""  paint-order="stroke"   >
		<g transform="matrix(1 0 0 1 0 0)"  >
<path style="stroke: none; stroke-width: 1; stroke-dasharray: none; stroke-linecap: butt; stroke-dashoffset: 0; stroke-linejoin: miter; stroke-miterlimit: 4; fill: rgb(255,224,111); fill-rule: nonzero; opacity: 1;"  paint-order="stroke"  transform=" translate(-100, -100)" d="M 200 100 A 100 100 0 0 1 100 200 A 100 100 0 0 1 0 100 A 100 100 0 0 1 100 0 A 100 100 0 0 1 200 100 Z" stroke-linecap="round" />
</g>
</g>
</g>
		<g transform="matrix(0.16782062183404223 0 0 0.16782062183404223 -7.3159355610576995 -46.0763900305395)"  >
<g style=""  paint-order="stroke"   >
		<g transform="matrix(1 0 0 1 0 0)"  >
<path style="stroke: none; stroke-width: 1; stroke-dasharray: none; stroke-linecap: butt; stroke-dashoffset: 0; stroke-linejoin: miter; stroke-miterlimit: 4; fill: rgb(255,224,111); fill-rule: nonzero; opacity: 1;"  paint-order="stroke"  transform=" translate(-100, -100)" d="M 200 100 A 100 100 0 0 1 100 200 A 100 100 0 0 1 0 100 A 100 100 0 0 1 100 0 A 100 100 0 0 1 200 100 Z" stroke-linecap="round" />
</g>
</g>
</g>
		<g transform="matrix(0.16782062183404223 0 0 0.16782062183404223 48.47290923339807 -113.20463876415639)"  >
<g style=""  paint-order="stroke"   >
		<g transform="matrix(1 0 0 1 0 0)"  >
<path style="stroke: none; stroke-width: 1; stroke-dasharray: none; stroke-linecap: butt; stroke-dashoffset: 0; stroke-linejoin: miter; stroke-miterlimit: 4; fill: rgb(255,224,111); fill-rule: nonzero; opacity: 1;"  paint-order="stroke"  transform=" translate(-100, -100)" d="M 200 100 A 100 100 0 0 1 100 200 A 100 100 0 0 1 0 100 A 100 100 0 0 1 100 0 A 100 100 0 0 1 200 100 Z" stroke-linecap="round" />
</g>
</g>
</g>
		<g transform="matrix(0.16782062183404223 0 0 0.16782062183404223 -55.091394619866946 -79.64051439734794)"  >
<g style=""  paint-order="stroke"   >
		<g transform="matrix(1 0 0 1 0 0)"  >
<path style="stroke: none; stroke-width: 1; stroke-dasharray: none; stroke-linecap: butt; stroke-dashoffset: 0; stroke-linejoin: miter; stroke-miterlimit: 4; fill: rgb(255,224,111); fill-rule: nonzero; opacity: 1;"  paint-order="stroke"  transform=" translate(-100, -100)" d="M 200 100 A 100 100 0 0 1 100 200 A 100 100 0 0 1 0 100 A 100 100 0 0 1 100 0 A 100 100 0 0 1 200 100 Z" stroke-linecap="round" />
</g>
</g>
</g>
		<g transform="matrix(1.0824013800967593 0 0 -1.679443757467944 -0.28322780737289577 41.507028757839464)"  >
<g style=""  paint-order="stroke"   >
		<g transform="matrix(1 0 0 1 0 0)"  >
<linearGradient id="SVGID_4_4_4_715733" gradientUnits="userSpaceOnUse" gradientTransform="matrix(1 0 0 1 -100 -52)"  x1="0" y1="0" x2="0" y2="104">
<stop offset="0%" style="stop-color:rgb(23,234,217);stop-opacity: 1"/>
<stop offset="100%" style="stop-color:rgb(96,120,234);stop-opacity: 1"/>
</linearGradient>
<polygon style="stroke: none; stroke-width: 1; stroke-dasharray: none; stroke-linecap: butt; stroke-dashoffset: 0; stroke-linejoin: miter; stroke-miterlimit: 4; fill: url(#SVGID_4_4_4_715733); fill-rule: nonzero; opacity: 1;"  paint-order="stroke"  points="100,52 -100,52 -69.08,-52 69.08000000000001,-52 100,52 " />
</g>
</g>
</g>
		<g transform="matrix(-0.8353482675468729 0 0 -1.6904879574812905 5.684342e-14 42.0813271585335)"  >
<g style=""  paint-order="stroke"   >
		<g transform="matrix(1 0 0 1 0 0)"  >
<polygon style="stroke: none; stroke-width: 1; stroke-dasharray: none; stroke-linecap: butt; stroke-dashoffset: 0; stroke-linejoin: miter; stroke-miterlimit: 4; fill: rgb(253,246,246); fill-rule: nonzero; opacity: 1;"  paint-order="stroke"  points="100,52 -100,52 -69.08,-52 69.08000000000001,-52 100,52 " />
</g>
</g>
</g>
		<g transform="matrix(-0.47030003902534695 0 0 -1.6771752361941352 5.684342e-14 41.38906565160141)"  >
<g style=""  paint-order="stroke"   >
		<g transform="matrix(1 0 0 1 0 0)"  >
<linearGradient id="SVGID_4_4_4_715734" gradientUnits="userSpaceOnUse" gradientTransform="matrix(1 0 0 1 -100 -52)"  x1="0" y1="0" x2="0" y2="104">
<stop offset="0%" style="stop-color:rgb(23,234,217);stop-opacity: 1"/>
<stop offset="100%" style="stop-color:rgb(96,120,234);stop-opacity: 1"/>
</linearGradient>
<polygon style="stroke: none; stroke-width: 1; stroke-dasharray: none; stroke-linecap: butt; stroke-dashoffset: 0; stroke-linejoin: miter; stroke-miterlimit: 4; fill: url(#SVGID_4_4_4_715734); fill-rule: nonzero; opacity: 1;"  paint-order="stroke"  points="100,52 -100,52 -69.08,-52 69.08000000000001,-52 100,52 " />
</g>
</g>
</g>
</g>
</g>
<g transform="matrix(1.9692780337941629 0 0 1.9692780337941629 639.013812190363 729.8911169805108)" id="text-logo-path"  >
<path style="stroke: none; stroke-width: 1; stroke-dasharray: none; stroke-linecap: butt; stroke-dashoffset: 0; stroke-linejoin: miter; stroke-miterlimit: 10; fill: rgb(255,255,255); fill-rule: nonzero; opacity: 1;"  paint-order="stroke"  transform=" translate(-235.51, 21.785)" d="M 62.89 -43.57 L 62.89 -34.38 L 60.09 -34.38 L 60.09 -9.18 L 62.89 -9.18 L 62.89 0 L 41.72 0 L 41.72 -9.18 L 44.41 -9.18 L 44.41 -28.78 L 34.89 0 L 26.6 0 L 16.8 -28.5 L 16.8 -9.18 L 19.49 -9.18 L 19.49 0 L 1.12 0 L 1.12 -9.18 L 3.92 -9.18 L 3.92 -34.38 L 1.12 -34.38 L 1.12 -43.57 L 26.77 -43.57 L 32.59 -26.1 L 38.19 -43.57 L 62.89 -43.57 Z M 81.7 0.78 Q 73.75 0.78 69.27 -3.39 Q 64.79 -7.56 64.79 -15.57 L 64.79 -15.57 Q 64.79 -23.58 69.27 -27.75 Q 73.75 -31.92 81.7 -31.92 L 81.7 -31.92 Q 89.77 -31.92 94.19 -27.69 Q 98.62 -23.46 98.62 -15.57 L 98.62 -15.57 Q 98.62 -7.56 94.14 -3.39 Q 89.66 0.78 81.7 0.78 L 81.7 0.78 Z M 81.7 -9.18 Q 83.33 -9.18 84.14 -10.05 Q 84.95 -10.92 84.95 -12.77 L 84.95 -12.77 L 84.95 -18.37 Q 84.95 -20.22 84.14 -21.08 Q 83.33 -21.95 81.7 -21.95 L 81.7 -21.95 Q 80.08 -21.95 79.27 -21.08 Q 78.46 -20.22 78.46 -18.37 L 78.46 -18.37 L 78.46 -12.77 Q 78.46 -10.92 79.27 -10.05 Q 80.08 -9.18 81.7 -9.18 L 81.7 -9.18 Z M 126.06 0 L 109.37 0 L 102.31 -21.95 L 99.96 -21.95 L 99.96 -31.14 L 117.26 -31.14 L 117.26 -21.95 L 114.91 -21.95 L 117.88 -10.86 L 118.44 -10.86 L 121.41 -21.95 L 119.06 -21.95 L 119.06 -31.14 L 135.3 -31.14 L 135.3 -21.95 L 132.94 -21.95 L 126.06 0 Z M 150.98 -34.22 L 139.55 -34.22 L 139.55 -43.57 L 150.98 -43.57 L 150.98 -34.22 Z M 154.67 0 L 136.86 0 L 136.86 -9.18 L 139.33 -9.18 L 139.33 -21.95 L 136.86 -21.95 L 136.86 -31.14 L 152.21 -31.14 L 152.21 -9.18 L 154.67 -9.18 L 154.67 0 Z M 172.93 0.78 Q 164.98 0.78 160.5 -3.39 Q 156.02 -7.56 156.02 -15.57 L 156.02 -15.57 Q 156.02 -23.58 160.5 -27.75 Q 164.98 -31.92 172.93 -31.92 L 172.93 -31.92 Q 180.82 -31.92 184.32 -27.8 Q 187.82 -23.69 187.82 -17.58 L 187.82 -17.58 L 187.82 -13.55 L 169.68 -13.55 L 169.68 -13.22 Q 169.68 -11.14 170.91 -10.16 Q 172.14 -9.18 175 -9.18 L 175 -9.18 Q 178.42 -9.18 181.5 -9.69 Q 184.58 -10.19 186.87 -10.98 L 186.87 -10.98 L 186.87 -2.02 Q 184.91 -0.95 181.13 -0.08 Q 177.35 0.78 172.93 0.78 L 172.93 0.78 Z M 169.68 -19.71 L 176.18 -19.71 L 176.18 -20.38 Q 176.18 -22.29 175.36 -23.13 Q 174.55 -23.97 172.93 -23.97 L 172.93 -23.97 Q 171.3 -23.97 170.49 -23.1 Q 169.68 -22.23 169.68 -20.38 L 169.68 -20.38 L 169.68 -19.71 Z M 206.42 0 L 206.42 -9.18 L 209.22 -9.18 L 209.22 -34.38 L 206.42 -34.38 L 206.42 -43.57 L 231 -43.57 Q 238.22 -43.57 242.03 -40.46 Q 245.84 -37.35 245.84 -30.41 L 245.84 -30.41 Q 245.84 -23.46 242.03 -20.36 Q 238.22 -17.25 231 -17.25 L 231 -17.25 L 224.9 -17.25 L 224.9 -9.18 L 230.27 -9.18 L 230.27 0 L 206.42 0 Z M 224.9 -25.2 L 226.8 -25.2 Q 230.05 -25.2 230.05 -28.78 L 230.05 -28.78 L 230.05 -30.8 Q 230.05 -32.65 229.24 -33.52 Q 228.42 -34.38 226.8 -34.38 L 226.8 -34.38 L 224.9 -34.38 L 224.9 -25.2 Z M 265.44 0.06 L 247.63 0.06 L 247.63 -9.18 L 250.1 -9.18 L 250.1 -34.38 L 247.63 -34.38 L 247.63 -43.57 L 262.98 -43.57 L 262.98 -9.18 L 265.44 -9.18 L 265.44 0.06 Z M 297.42 -9.18 L 299.88 -9.18 L 299.88 0 L 285.1 0 L 285.1 -3.81 Q 283.86 -2.02 281.65 -0.62 Q 279.44 0.78 276.25 0.78 L 276.25 0.78 Q 272.05 0.78 269.64 -1.46 Q 267.23 -3.7 267.23 -7.78 L 267.23 -7.78 Q 267.23 -18.37 285.21 -18.65 L 285.21 -18.65 Q 285.04 -20.55 283.75 -21.25 Q 282.46 -21.95 279.38 -21.95 L 279.38 -21.95 Q 276.86 -21.95 273.98 -21.42 Q 271.1 -20.89 268.69 -19.99 L 268.69 -19.99 L 268.69 -30.3 Q 271.66 -31.02 275.13 -31.47 Q 278.6 -31.92 281.9 -31.92 L 281.9 -31.92 Q 290.25 -31.92 293.83 -28.9 Q 297.42 -25.87 297.42 -19.54 L 297.42 -19.54 L 297.42 -9.18 Z M 285.1 -12.77 L 285.1 -13.1 Q 282.58 -13.1 281.2 -12.43 Q 279.83 -11.76 279.83 -10.19 L 279.83 -10.19 Q 279.83 -9.24 280.42 -8.65 Q 281.01 -8.06 282.07 -8.06 L 282.07 -8.06 Q 283.53 -8.06 284.31 -9.3 Q 285.1 -10.53 285.1 -12.77 L 285.1 -12.77 Z M 315.5 0.78 Q 309.57 0.78 306.57 -2.1 Q 303.58 -4.98 303.58 -11.82 L 303.58 -11.82 L 303.58 -21.95 L 301.11 -21.95 L 301.11 -31.14 Q 303.24 -31.14 304.3 -32.23 Q 305.37 -33.32 305.37 -35.22 L 305.37 -35.22 L 305.37 -37.74 L 317.24 -37.74 L 317.24 -31.14 L 324.8 -31.14 L 324.8 -21.95 L 317.24 -21.95 L 317.24 -12.77 Q 317.24 -10.92 318.05 -10.05 Q 318.86 -9.18 320.49 -9.18 L 320.49 -9.18 Q 322.62 -9.18 325.14 -9.69 L 325.14 -9.69 L 325.14 -0.9 Q 323.57 -0.28 320.91 0.25 Q 318.25 0.78 315.5 0.78 L 315.5 0.78 Z M 326.93 0 L 326.93 -9.18 L 329.39 -9.18 L 329.39 -21.95 L 326.93 -21.95 L 326.93 -31.14 L 329.5 -31.14 Q 329.5 -37.97 332.84 -41.16 Q 336.17 -44.35 342.55 -44.35 L 342.55 -44.35 Q 345.63 -44.35 348.07 -43.9 Q 350.5 -43.46 351.62 -42.9 L 351.62 -42.9 L 351.62 -34.1 Q 348.66 -34.38 346.14 -34.38 L 346.14 -34.38 Q 343.95 -34.38 343.11 -33.66 Q 342.27 -32.93 342.27 -31.14 L 342.27 -31.14 L 346.64 -31.14 L 346.64 -21.95 L 342.27 -21.95 L 342.27 -9.18 L 346.64 -9.18 L 346.64 0 L 326.93 0 Z M 365.12 0.78 Q 357.17 0.78 352.69 -3.39 Q 348.21 -7.56 348.21 -15.57 L 348.21 -15.57 Q 348.21 -23.58 352.69 -27.75 Q 357.17 -31.92 365.12 -31.92 L 365.12 -31.92 Q 373.18 -31.92 377.61 -27.69 Q 382.03 -23.46 382.03 -15.57 L 382.03 -15.57 Q 382.03 -7.56 377.55 -3.39 Q 373.07 0.78 365.12 0.78 L 365.12 0.78 Z M 365.12 -9.18 Q 366.74 -9.18 367.56 -10.05 Q 368.37 -10.92 368.37 -12.77 L 368.37 -12.77 L 368.37 -18.37 Q 368.37 -20.22 367.56 -21.08 Q 366.74 -21.95 365.12 -21.95 L 365.12 -21.95 Q 363.5 -21.95 362.68 -21.08 Q 361.87 -20.22 361.87 -18.37 L 361.87 -18.37 L 361.87 -12.77 Q 361.87 -10.92 362.68 -10.05 Q 363.5 -9.18 365.12 -9.18 L 365.12 -9.18 Z M 407.74 -31.92 Q 408.86 -31.92 409.86 -31.7 Q 410.87 -31.47 411.54 -31.14 L 411.54 -31.14 L 411.54 -20.44 Q 409.25 -21.39 406.62 -21.39 L 406.62 -21.39 Q 403.09 -21.39 401.18 -19.54 Q 399.28 -17.7 399.28 -14.06 L 399.28 -14.06 L 399.28 -9.18 L 404.32 -9.18 L 404.32 0 L 383.94 0 L 383.94 -9.18 L 386.4 -9.18 L 386.4 -21.95 L 383.94 -21.95 L 383.94 -31.14 L 399.28 -31.14 L 399.28 -27.05 Q 400.85 -29.4 402.86 -30.66 Q 404.88 -31.92 407.74 -31.92 L 407.74 -31.92 Z M 467.43 -9.18 L 469.9 -9.18 L 469.9 0 L 452.2 0 L 452.2 -9.18 L 454.55 -9.18 L 454.55 -18.37 Q 454.55 -20.22 453.77 -21.08 Q 452.98 -21.95 451.42 -21.95 L 451.42 -21.95 Q 448.06 -21.95 448.06 -18.37 L 448.06 -18.37 L 448.06 -9.18 L 450.41 -9.18 L 450.41 0 L 432.82 0 L 432.82 -9.18 L 435.18 -9.18 L 435.18 -18.37 Q 435.18 -20.22 434.39 -21.08 Q 433.61 -21.95 432.04 -21.95 L 432.04 -21.95 Q 428.68 -21.95 428.68 -18.37 L 428.68 -18.37 L 428.68 -9.18 L 431.03 -9.18 L 431.03 0 L 413.34 0 L 413.34 -9.18 L 415.8 -9.18 L 415.8 -21.95 L 413.34 -21.95 L 413.34 -31.14 L 428.68 -31.14 L 428.68 -26.77 Q 432.71 -31.92 438.76 -31.92 L 438.76 -31.92 Q 442.18 -31.92 444.33 -30.32 Q 446.49 -28.73 447.38 -25.82 L 447.38 -25.82 Q 449.4 -28.73 452 -30.3 Q 454.61 -31.86 458.14 -31.86 L 458.14 -31.86 Q 462.78 -31.86 465.11 -28.95 Q 467.43 -26.04 467.43 -20.94 L 467.43 -20.94 L 467.43 -9.18 Z" stroke-linecap="round" />
</g>
<g transform="matrix(1.9692780337941629 0 0 1.9692780337941629 640.0153846153845 444.26141207521596)" id="tagline-532966cd-a8b6-4506-85d3-75293f7d7bb0-logo-path"  >
<path style="stroke: none; stroke-width: 0; stroke-dasharray: none; stroke-linecap: butt; stroke-dashoffset: 0; stroke-linejoin: miter; stroke-miterlimit: 4; fill: rgb(246,200,62); fill-rule: nonzero; opacity: 1;"  paint-order="stroke"  transform=" translate(-54.294999999999995, 36.955)" d="M 106.69 -73.91 L 106.69 -58.33 L 101.94 -58.33 L 101.94 -15.58 L 106.69 -15.58 L 106.69 0 L 70.78 0 L 70.78 -15.58 L 75.34 -15.58 L 75.34 -48.83 L 59.19 0 L 45.13 0 L 28.5 -48.36 L 28.5 -15.58 L 33.06 -15.58 L 33.06 0 L 1.9 0 L 1.9 -15.58 L 6.65 -15.58 L 6.65 -58.33 L 1.9 -58.33 L 1.9 -73.91 L 45.41 -73.91 L 55.29 -44.27 L 64.79 -73.91 L 106.69 -73.91 Z" stroke-linecap="round" />
</g>
<g transform="matrix(1.9692780337941629 0 0 1.9692780337941629 640.2457901453384 881.9410360932504)" id="tagline-eb02475a-f93a-4173-9ecf-e8a655372b7f-logo-path"  >
<path style="stroke: none; stroke-width: 0; stroke-dasharray: none; stroke-linecap: butt; stroke-dashoffset: 0; stroke-linejoin: miter; stroke-miterlimit: 4; fill: rgb(255,255,255); fill-rule: nonzero; opacity: 1;"  paint-order="stroke"  transform=" translate(-245.79500000000002, 10.57)" d="M 23.24 -23.95 L 23.24 -30.34 L 36.04 -30.34 L 36.04 -23.95 L 34.09 -23.95 L 34.09 0 L 23.13 0 L 11.7 -17.59 L 11.7 -6.4 L 13.57 -6.4 L 13.57 0 L 0.78 0 L 0.78 -6.4 L 2.73 -6.4 L 2.73 -23.95 L 0.78 -23.95 L 0.78 -30.34 L 14.86 -30.34 L 25.12 -14.7 L 25.12 -23.95 L 23.24 -23.95 Z M 49.06 0.55 Q 43.52 0.55 40.4 -2.36 Q 37.28 -5.26 37.28 -10.84 L 37.28 -10.84 Q 37.28 -16.42 40.4 -19.32 Q 43.52 -22.23 49.06 -22.23 L 49.06 -22.23 Q 54.56 -22.23 57 -19.36 Q 59.44 -16.5 59.44 -12.25 L 59.44 -12.25 L 59.44 -9.44 L 46.8 -9.44 L 46.8 -9.2 Q 46.8 -7.76 47.66 -7.08 Q 48.52 -6.4 50.5 -6.4 L 50.5 -6.4 Q 52.88 -6.4 55.03 -6.75 Q 57.17 -7.1 58.77 -7.64 L 58.77 -7.64 L 58.77 -1.4 Q 57.41 -0.66 54.78 -0.06 Q 52.14 0.55 49.06 0.55 L 49.06 0.55 Z M 46.8 -13.73 L 51.32 -13.73 L 51.32 -14.2 Q 51.32 -15.52 50.76 -16.11 Q 50.19 -16.69 49.06 -16.69 L 49.06 -16.69 Q 47.93 -16.69 47.37 -16.09 Q 46.8 -15.48 46.8 -14.2 L 46.8 -14.2 L 46.8 -13.73 Z M 77.96 -11.15 L 82.99 -6.4 L 84.24 -6.4 L 84.24 0 L 72.07 0 L 72.07 -6.4 L 73.16 -6.4 L 71.64 -8.7 L 71.25 -8.7 L 69.73 -6.4 L 70.82 -6.4 L 70.82 0 L 60.37 0 L 60.37 -6.4 L 62.01 -6.4 L 66.73 -10.61 L 61.78 -15.29 L 60.53 -15.29 L 60.53 -21.68 L 72.7 -21.68 L 72.7 -15.29 L 71.6 -15.29 L 73.13 -13.03 L 73.52 -13.03 L 75.04 -15.29 L 73.94 -15.29 L 73.94 -21.68 L 84.08 -21.68 L 84.08 -15.29 L 82.45 -15.29 L 77.96 -11.15 Z M 95.04 0.55 Q 90.91 0.55 88.82 -1.46 Q 86.74 -3.47 86.74 -8.23 L 86.74 -8.23 L 86.74 -15.29 L 85.02 -15.29 L 85.02 -21.68 Q 86.5 -21.68 87.24 -22.44 Q 87.98 -23.2 87.98 -24.53 L 87.98 -24.53 L 87.98 -26.29 L 96.25 -26.29 L 96.25 -21.68 L 101.52 -21.68 L 101.52 -15.29 L 96.25 -15.29 L 96.25 -8.89 Q 96.25 -7.61 96.82 -7 Q 97.38 -6.4 98.51 -6.4 L 98.51 -6.4 Q 100 -6.4 101.75 -6.75 L 101.75 -6.75 L 101.75 -0.62 Q 100.66 -0.2 98.81 0.18 Q 96.95 0.55 95.04 0.55 L 95.04 0.55 Z M 109.94 0 L 103.86 0 L 103.86 -6.4 L 109.94 -6.4 L 109.94 0 Z M 122.15 -23.83 L 114.19 -23.83 L 114.19 -30.34 L 122.15 -30.34 L 122.15 -23.83 Z M 113.92 9.2 Q 112.32 9.2 110.62 8.93 Q 108.93 8.66 107.76 8.35 L 107.76 8.35 L 107.76 1.99 Q 109.59 2.26 111.03 2.26 L 111.03 2.26 Q 114.04 2.26 114.04 -0.55 L 114.04 -0.55 L 114.04 -15.29 L 111.42 -15.29 L 111.42 -21.68 L 123.01 -21.68 L 123.01 -1.33 Q 123.01 4.02 120.74 6.61 Q 118.48 9.2 113.92 9.2 L 113.92 9.2 Z M 134.2 0.55 Q 129.28 0.55 124.72 -1.01 L 124.72 -1.01 L 124.72 -6.79 L 131.04 -6.79 L 131.04 -6.4 Q 131.04 -4.52 133.42 -4.52 L 133.42 -4.52 Q 135.53 -4.52 135.53 -5.97 L 135.53 -5.97 Q 135.53 -6.75 134.92 -7.14 Q 134.32 -7.53 132.8 -7.8 L 132.8 -7.8 L 130.84 -8.15 Q 124.72 -9.24 124.72 -15.09 L 124.72 -15.09 Q 124.72 -18.49 127.3 -20.36 Q 129.87 -22.23 134.24 -22.23 L 134.24 -22.23 Q 139.11 -22.23 142.47 -20.59 L 142.47 -20.59 L 142.47 -15.17 L 136.54 -15.17 L 136.54 -15.56 Q 136.54 -16.34 136.01 -16.75 Q 135.49 -17.16 134.47 -17.16 L 134.47 -17.16 Q 132.52 -17.16 132.52 -15.91 L 132.52 -15.91 Q 132.52 -15.25 133.07 -14.9 Q 133.61 -14.55 135.06 -14.23 L 135.06 -14.23 L 137.28 -13.81 Q 140.75 -13.14 142.23 -11.35 Q 143.72 -9.55 143.72 -6.75 L 143.72 -6.75 Q 143.72 -3.2 141.24 -1.33 Q 138.76 0.55 134.2 0.55 L 134.2 0.55 Z M 177.68 -6.4 L 179.4 -6.4 L 179.4 0 L 169.1 0 L 169.1 -2.65 Q 168.25 -1.4 166.71 -0.43 Q 165.17 0.55 162.94 0.55 L 162.94 0.55 Q 160.02 0.55 158.34 -1.01 Q 156.66 -2.57 156.66 -5.42 L 156.66 -5.42 Q 156.66 -12.79 169.18 -12.99 L 169.18 -12.99 Q 169.06 -14.31 168.17 -14.8 Q 167.27 -15.29 165.13 -15.29 L 165.13 -15.29 Q 163.37 -15.29 161.36 -14.92 Q 159.35 -14.55 157.68 -13.92 L 157.68 -13.92 L 157.68 -21.1 Q 159.74 -21.61 162.16 -21.92 Q 164.58 -22.23 166.88 -22.23 L 166.88 -22.23 Q 172.69 -22.23 175.19 -20.12 Q 177.68 -18.02 177.68 -13.61 L 177.68 -13.61 L 177.68 -6.4 Z M 169.1 -8.89 L 169.1 -9.13 Q 167.35 -9.13 166.39 -8.66 Q 165.44 -8.19 165.44 -7.1 L 165.44 -7.1 Q 165.44 -6.43 165.85 -6.03 Q 166.26 -5.62 167 -5.62 L 167 -5.62 Q 168.01 -5.62 168.56 -6.47 Q 169.1 -7.33 169.1 -8.89 L 169.1 -8.89 Z M 204.83 -6.4 L 206.54 -6.4 L 206.54 0 L 194.22 0 L 194.22 -6.4 L 195.86 -6.4 L 195.86 -12.79 Q 195.86 -14.08 195.31 -14.68 Q 194.77 -15.29 193.67 -15.29 L 193.67 -15.29 Q 191.33 -15.29 191.33 -12.79 L 191.33 -12.79 L 191.33 -6.4 L 192.97 -6.4 L 192.97 0 L 180.65 0 L 180.65 -6.4 L 182.36 -6.4 L 182.36 -15.29 L 180.65 -15.29 L 180.65 -21.68 L 191.33 -21.68 L 191.33 -18.64 Q 194.14 -22.23 198.35 -22.23 L 198.35 -22.23 Q 201.59 -22.23 203.21 -20.2 Q 204.83 -18.17 204.83 -14.63 L 204.83 -14.63 L 204.83 -6.4 Z M 215.48 0.55 Q 211.5 0.55 209.49 -2.42 Q 207.48 -5.38 207.48 -10.84 L 207.48 -10.84 Q 207.48 -16.3 209.49 -19.27 Q 211.5 -22.23 215.48 -22.23 L 215.48 -22.23 Q 217.46 -22.23 219 -21.25 Q 220.55 -20.28 221.52 -19.03 L 221.52 -19.03 L 221.52 -23.95 L 219.22 -23.95 L 219.22 -30.34 L 230.49 -30.34 L 230.49 -6.4 L 232.21 -6.4 L 232.21 0 L 221.52 0 L 221.52 -2.65 Q 220.55 -1.4 219 -0.43 Q 217.46 0.55 215.48 0.55 L 215.48 0.55 Z M 219.26 -6.4 Q 220.39 -6.4 220.95 -7 Q 221.52 -7.61 221.52 -8.89 L 221.52 -8.89 L 221.52 -12.79 Q 221.52 -14.08 220.95 -14.68 Q 220.39 -15.29 219.26 -15.29 L 219.26 -15.29 Q 218.13 -15.29 217.56 -14.68 Q 217 -14.08 217 -12.79 L 217 -12.79 L 217 -8.89 Q 217 -7.61 217.56 -7 Q 218.13 -6.4 219.26 -6.4 L 219.26 -6.4 Z M 274.33 -30.34 L 274.33 -20.9 L 267.62 -20.9 L 267.62 -23.95 L 265.12 -23.95 L 265.12 -6.4 L 267.85 -6.4 L 267.85 0 L 251.47 0 L 251.47 -6.4 L 254.2 -6.4 L 254.2 -23.95 L 251.71 -23.95 L 251.71 -20.9 L 245 -20.9 L 245 -30.34 L 274.33 -30.34 Z M 295.97 -6.4 L 297.69 -6.4 L 297.69 0 L 287.39 0 L 287.39 -2.65 Q 286.53 -1.4 284.99 -0.43 Q 283.45 0.55 281.23 0.55 L 281.23 0.55 Q 278.3 0.55 276.63 -1.01 Q 274.95 -2.57 274.95 -5.42 L 274.95 -5.42 Q 274.95 -12.79 287.47 -12.99 L 287.47 -12.99 Q 287.35 -14.31 286.45 -14.8 Q 285.56 -15.29 283.41 -15.29 L 283.41 -15.29 Q 281.66 -15.29 279.65 -14.92 Q 277.64 -14.55 275.96 -13.92 L 275.96 -13.92 L 275.96 -21.1 Q 278.03 -21.61 280.45 -21.92 Q 282.87 -22.23 285.17 -22.23 L 285.17 -22.23 Q 290.98 -22.23 293.47 -20.12 Q 295.97 -18.02 295.97 -13.61 L 295.97 -13.61 L 295.97 -6.4 Z M 287.39 -8.89 L 287.39 -9.13 Q 285.64 -9.13 284.68 -8.66 Q 283.72 -8.19 283.72 -7.1 L 283.72 -7.1 Q 283.72 -6.43 284.13 -6.03 Q 284.54 -5.62 285.28 -5.62 L 285.28 -5.62 Q 286.3 -5.62 286.84 -6.47 Q 287.39 -7.33 287.39 -8.89 L 287.39 -8.89 Z M 308.76 -23.83 L 300.81 -23.83 L 300.81 -30.34 L 308.76 -30.34 L 308.76 -23.83 Z M 311.34 0 L 298.94 0 L 298.94 -6.4 L 300.65 -6.4 L 300.65 -15.29 L 298.94 -15.29 L 298.94 -21.68 L 309.62 -21.68 L 309.62 -6.4 L 311.34 -6.4 L 311.34 0 Z M 324.83 0.04 L 312.43 0.04 L 312.43 -6.4 L 314.14 -6.4 L 314.14 -23.95 L 312.43 -23.95 L 312.43 -30.34 L 323.11 -30.34 L 323.11 -6.4 L 324.83 -6.4 L 324.83 0.04 Z M 341.52 0 L 332.55 0 L 327.4 -15.29 L 325.77 -15.29 L 325.77 -21.68 L 337.82 -21.68 L 337.82 -15.29 L 336.18 -15.29 L 337.58 -9.2 L 337.97 -9.2 L 340.82 -21.68 L 348 -21.68 L 350.84 -9.2 L 351.23 -9.2 L 352.6 -15.29 L 350.96 -15.29 L 350.96 -21.68 L 362.27 -21.68 L 362.27 -15.29 L 360.63 -15.29 L 355.68 0 L 346.2 0 L 344.06 -10.84 L 343.67 -10.84 L 341.52 0 Z M 373.19 -23.83 L 365.23 -23.83 L 365.23 -30.34 L 373.19 -30.34 L 373.19 -23.83 Z M 375.76 0 L 363.36 0 L 363.36 -6.4 L 365.08 -6.4 L 365.08 -15.29 L 363.36 -15.29 L 363.36 -21.68 L 374.05 -21.68 L 374.05 -6.4 L 375.76 -6.4 L 375.76 0 Z M 401.04 -6.4 L 402.75 -6.4 L 402.75 0 L 390.43 0 L 390.43 -6.4 L 392.07 -6.4 L 392.07 -12.79 Q 392.07 -14.08 391.52 -14.68 Q 390.97 -15.29 389.88 -15.29 L 389.88 -15.29 Q 387.54 -15.29 387.54 -12.79 L 387.54 -12.79 L 387.54 -6.4 L 389.18 -6.4 L 389.18 0 L 376.86 0 L 376.86 -6.4 L 378.57 -6.4 L 378.57 -15.29 L 376.86 -15.29 L 376.86 -21.68 L 387.54 -21.68 L 387.54 -18.64 Q 390.35 -22.23 394.56 -22.23 L 394.56 -22.23 Q 397.8 -22.23 399.42 -20.2 Q 401.04 -18.17 401.04 -14.63 L 401.04 -14.63 L 401.04 -6.4 Z M 411.68 0.55 Q 407.71 0.55 405.7 -2.42 Q 403.69 -5.38 403.69 -10.84 L 403.69 -10.84 Q 403.69 -16.3 405.7 -19.27 Q 407.71 -22.23 411.68 -22.23 L 411.68 -22.23 Q 413.67 -22.23 415.21 -21.25 Q 416.75 -20.28 417.73 -19.03 L 417.73 -19.03 L 417.73 -23.95 L 415.43 -23.95 L 415.43 -30.34 L 426.7 -30.34 L 426.7 -6.4 L 428.41 -6.4 L 428.41 0 L 417.73 0 L 417.73 -2.65 Q 416.75 -1.4 415.21 -0.43 Q 413.67 0.55 411.68 0.55 L 411.68 0.55 Z M 415.47 -6.4 Q 416.6 -6.4 417.16 -7 Q 417.73 -7.61 417.73 -8.89 L 417.73 -8.89 L 417.73 -12.79 Q 417.73 -14.08 417.16 -14.68 Q 416.6 -15.29 415.47 -15.29 L 415.47 -15.29 Q 414.34 -15.29 413.77 -14.68 Q 413.2 -14.08 413.2 -12.79 L 413.2 -12.79 L 413.2 -8.89 Q 413.2 -7.61 413.77 -7 Q 414.34 -6.4 415.47 -6.4 L 415.47 -6.4 Z M 441.32 0.55 Q 435.75 0.55 432.63 -2.36 Q 429.51 -5.26 429.51 -10.84 L 429.51 -10.84 Q 429.51 -16.42 432.63 -19.32 Q 435.75 -22.23 441.28 -22.23 L 441.28 -22.23 Q 443.98 -22.23 446.43 -21.49 Q 448.89 -20.75 450.25 -19.81 L 450.25 -19.81 L 450.25 -12.09 L 443.55 -12.09 L 443.55 -12.79 Q 443.55 -14.08 443 -14.68 Q 442.45 -15.29 441.28 -15.29 L 441.28 -15.29 Q 439.02 -15.29 439.02 -12.79 L 439.02 -12.79 L 439.02 -9.44 Q 439.02 -6.4 442.49 -6.4 L 442.49 -6.4 Q 445.73 -6.4 450.02 -7.1 L 450.02 -7.1 L 450.02 -0.97 Q 448.69 -0.39 446.3 0.08 Q 443.9 0.55 441.32 0.55 L 441.32 0.55 Z M 461.06 0.55 Q 456.14 0.55 451.58 -1.01 L 451.58 -1.01 L 451.58 -6.79 L 457.9 -6.79 L 457.9 -6.4 Q 457.9 -4.52 460.28 -4.52 L 460.28 -4.52 Q 462.38 -4.52 462.38 -5.97 L 462.38 -5.97 Q 462.38 -6.75 461.78 -7.14 Q 461.17 -7.53 459.65 -7.8 L 459.65 -7.8 L 457.7 -8.15 Q 451.58 -9.24 451.58 -15.09 L 451.58 -15.09 Q 451.58 -18.49 454.15 -20.36 Q 456.73 -22.23 461.1 -22.23 L 461.1 -22.23 Q 465.97 -22.23 469.33 -20.59 L 469.33 -20.59 L 469.33 -15.17 L 463.4 -15.17 L 463.4 -15.56 Q 463.4 -16.34 462.87 -16.75 Q 462.34 -17.16 461.33 -17.16 L 461.33 -17.16 Q 459.38 -17.16 459.38 -15.91 L 459.38 -15.91 Q 459.38 -15.25 459.93 -14.9 Q 460.47 -14.55 461.92 -14.23 L 461.92 -14.23 L 464.14 -13.81 Q 467.61 -13.14 469.09 -11.35 Q 470.57 -9.55 470.57 -6.75 L 470.57 -6.75 Q 470.57 -3.2 468.1 -1.33 Q 465.62 0.55 461.06 0.55 L 461.06 0.55 Z M 481.3 0.55 Q 476.38 0.55 471.82 -1.01 L 471.82 -1.01 L 471.82 -6.79 L 478.14 -6.79 L 478.14 -6.4 Q 478.14 -4.52 480.52 -4.52 L 480.52 -4.52 Q 482.62 -4.52 482.62 -5.97 L 482.62 -5.97 Q 482.62 -6.75 482.02 -7.14 Q 481.42 -7.53 479.89 -7.8 L 479.89 -7.8 L 477.94 -8.15 Q 471.82 -9.24 471.82 -15.09 L 471.82 -15.09 Q 471.82 -18.49 474.4 -20.36 Q 476.97 -22.23 481.34 -22.23 L 481.34 -22.23 Q 486.21 -22.23 489.57 -20.59 L 489.57 -20.59 L 489.57 -15.17 L 483.64 -15.17 L 483.64 -15.56 Q 483.64 -16.34 483.11 -16.75 Q 482.59 -17.16 481.57 -17.16 L 481.57 -17.16 Q 479.62 -17.16 479.62 -15.91 L 479.62 -15.91 Q 479.62 -15.25 480.17 -14.9 Q 480.71 -14.55 482.16 -14.23 L 482.16 -14.23 L 484.38 -13.81 Q 487.85 -13.14 489.33 -11.35 Q 490.81 -9.55 490.81 -6.75 L 490.81 -6.75 Q 490.81 -3.2 488.34 -1.33 Q 485.86 0.55 481.3 0.55 L 481.3 0.55 Z" stroke-linecap="round" />
</g>
</svg>